
        <svg xmlns="http://www.w3.org/2000/svg" xmlns:xlink="http://www.w3.org/1999/xlink" version="1.1" width="3214.285714285714" 
        height="2459.931344878089" viewBox="0 0 3214.285714285714 2459.931344878089">
			<rect fill="#020205" width="3214.285714285714" height="2459.931344878089"/>
			<g transform="scale(10.714285714285714) translate(10, 10)">
				<defs id="SvgjsDefs1133"></defs><g id="SvgjsG1134" featureKey="symbolFeature-0" transform="matrix(0.7555106417759481,0,0,0.7555106417759481,91.63584712881516,-2.251597171354139e-8)" fill="#f2f4f7"><g xmlns="http://www.w3.org/2000/svg"><rect x="66.2" y="28.2" width="10.5" height="10.5"></rect><rect x="50.5" y="44" width="10.5" height="10.5"></rect><rect x="66.2" y="44" width="10.5" height="10.5"></rect><rect x="50.5" y="28.2" width="10.5" height="10.5"></rect><path d="M128.9,60.8l-63-59.7C65.8,1,65.8,1,65.7,0.9c-0.1-0.1-0.2-0.2-0.3-0.3c-0.1-0.1-0.2-0.1-0.3-0.2c-0.1-0.1-0.2-0.1-0.4-0.2   c-0.1,0-0.2-0.1-0.4-0.1c-0.1,0-0.2-0.1-0.4-0.1c-0.1,0-0.3,0-0.4,0c-0.1,0-0.3,0-0.4,0c-0.1,0-0.3,0-0.4,0c-0.1,0-0.3,0-0.4,0   c-0.1,0-0.2,0.1-0.4,0.1c-0.1,0-0.3,0.1-0.4,0.1c-0.1,0-0.2,0.1-0.4,0.2c-0.1,0.1-0.2,0.1-0.3,0.2c-0.1,0.1-0.2,0.2-0.3,0.2   C60.6,1,60.5,1,60.4,1.1L-0.9,59.2c-1.6,1.5-1.7,4.1-0.2,5.7c0.8,0.8,1.8,1.3,2.9,1.3c1,0,2-0.4,2.8-1.1l7.5-7.1V124   c0,1.2,0.5,2.3,1.4,3.1c0.7,0.6,1.6,0.9,2.6,0.9c0.2,0,0.5,0,0.7-0.1c10.1-1.8,19.6-4.1,28.3-6.7c2.1-0.6,3.3-2.9,2.7-5   c-0.6-2.1-2.9-3.3-5-2.7c-7,2.1-14.6,4-22.7,5.6V50.9c0-0.2,0-0.3,0-0.5L63.2,9.5l44.8,42.4v67.2c-12.8-2.6-24.3-5.8-34.2-9.5   c26.5-14.5,25.4-29.7,22-37.9c-2-4.9-6.6-8.2-12.4-8.9c-6.7-0.8-13.8,2.1-19.3,7.6c-5.5-5.5-12.6-8.4-19.3-7.6   c-5.8,0.7-10.4,4-12.4,8.9c-2.6,6.5-2.2,13.2,1.2,19.4c8.7,15.9,37.1,29.4,77.8,36.8c0.2,0,0.5,0.1,0.7,0.1c0.9,0,1.8-0.3,2.6-0.9   c0.9-0.8,1.4-1.9,1.4-3.1V59.5l7.5,7.1c0.8,0.7,1.8,1.1,2.8,1.1c1.1,0,2.1-0.4,2.9-1.3C130.6,64.8,130.5,62.3,128.9,60.8z    M40.4,87.3c-2.3-4.2-2.5-8.3-0.8-12.5c0.9-2.2,3.1-3.6,6-3.9c4.1-0.5,10.3,1.4,15.1,8.1c0,0.1,0.1,0.1,0.2,0.2   c0.1,0.1,0.2,0.2,0.3,0.3c0.1,0.1,0.2,0.2,0.3,0.3c0.1,0,0.1,0.1,0.2,0.1c0,0,0.1,0,0.1,0.1c0.1,0.1,0.2,0.2,0.4,0.2   c0.1,0.1,0.2,0.1,0.3,0.2c0.1,0,0.2,0.1,0.4,0.1c0.1,0,0.3,0.1,0.4,0.1c0.1,0,0.2,0,0.4,0c0.1,0,0.3,0,0.4,0c0.1,0,0.2,0,0.4,0   c0.1,0,0.3,0,0.4,0c0.1,0,0.2-0.1,0.4-0.1c0.1,0,0.3-0.1,0.4-0.1c0.1,0,0.2-0.1,0.3-0.2c0.1-0.1,0.3-0.1,0.4-0.2c0,0,0.1,0,0.1-0.1   c0.1,0,0.1-0.1,0.2-0.1c0.1-0.1,0.2-0.2,0.3-0.3c0.1-0.1,0.2-0.2,0.3-0.3c0-0.1,0.1-0.1,0.2-0.2c4.9-6.7,11-8.6,15.1-8.1   c2.9,0.3,5.1,1.8,6,3.9c5.7,14-12.2,25.1-24.3,30.8C52.3,100,44,93.8,40.4,87.3z"></path></g></g><g id="SvgjsG1135" featureKey="nameFeature-0" transform="matrix(1.7780036042446719,0,0,1.7780036042446719,3.9116118293019335,96.30401708852646)" fill="#f2f4f7"><path d="M20.32 12.68 c0.2 0.08 0.2 0.64 0.2 0.8 c0 0.88 -0.44 1.96 -0.44 3.08 l-0.04 0 c0 0.6 -0.36 1.12 -0.36 1.68 c0 1.04 -0.44 2.96 -0.64 4.08 c-0.12 0 -0.12 0.16 -0.12 0.24 l0 0.08 c-0.08 0.16 -0.16 0.4 -0.16 0.64 l0 0.2 c0 0.36 -0.2 0.68 -0.2 1.04 c0 0.04 0.04 0.2 0.04 0.2 c-0.16 0.28 -0.4 0.96 -0.4 1.28 c0 0.16 0.08 0.32 0.16 0.48 c-0.08 0.32 -0.08 0.64 -0.16 0.96 l-0.04 0.08 l0.04 0.08 c-0.16 0.68 0 1.76 -0.28 2.08 l0.08 0.24 c-0.12 0.24 -0.12 0.52 -0.12 0.8 l0 0.6 c0 0.4 -0.04 0.76 -0.32 1.08 c0.04 0.16 0.04 0.32 0.04 0.44 c0 0.52 -0.16 1.04 -0.16 1.56 c0 0.24 0.08 0.44 0.08 0.68 c0 0.2 -0.2 0.36 -0.2 0.6 c0 0.2 0.12 0.36 0.12 0.56 c0 0.92 -0.2 2.72 -0.36 2.88 l0.08 0.08 l0 0.24 c0 0.28 0 0.52 -0.16 0.72 l0 0.4 c-0.2 0.16 -0.32 0.4 -0.4 0.6 l-0.16 -0.08 l-0.04 0.08 c-0.16 0.52 -0.16 0.52 -0.84 0.52 l0 0.12 l-0.16 0.08 c-0.56 -0.36 -0.72 -1.16 -0.72 -1.8 c0 -0.12 0 -0.24 0.12 -0.36 c-0.16 -0.28 -0.2 -1.28 -0.2 -1.6 c0 -0.4 0.04 -0.8 0.2 -1.2 c-0.04 -0.12 -0.12 -0.28 -0.12 -0.44 c0 -0.48 0.2 -1.04 0.28 -1.36 c-0.08 -0.16 -0.08 -0.48 -0.08 -0.92 c0 -1.32 0.32 -1.96 0.32 -2.28 c0 -0.2 0 -0.48 -0.12 -0.64 c0.16 -0.16 0.16 -0.4 0.16 -0.64 l0.16 -0.12 c-0.32 -0.2 0 -0.64 -0.52 -0.64 c-0.2 0 -0.36 0.12 -0.52 0.12 c0 0 -0.2 -0.08 -0.24 -0.08 l-0.2 0.16 c-0.12 -0.04 -0.24 -0.04 -0.36 -0.04 c-1.08 0 -3.12 0.76 -4.08 0.76 l-0.2 0.08 c-0.04 0.08 -0.16 0.16 -0.32 0.16 c-0.6 0 -0.96 0.56 -1.48 0.6 c-0.72 0.56 -1.56 0.92 -2.2 1.52 c-0.12 0 -0.56 0.68 -0.8 0.84 c-0.44 0 -0.6 0.96 -0.8 1.24 l0.24 0.04 c-0.16 0.2 -0.24 0.64 -0.52 0.64 c-0.32 0.2 -1.04 1.52 -1.04 1.88 c-0.24 0.04 -0.52 1.04 -0.52 1.28 l-0.24 0.08 c-0.16 0.24 -0.2 0.48 -0.44 0.64 l0 0.16 c-0.04 0.12 -0.2 0.36 -0.2 0.52 l0 0.2 l0 0.16 c-0.76 1.04 -0.52 2.72 -1.76 3.4 l-0.36 -0.08 l-0.52 0.16 c-0.2 -0.2 -0.52 -0.32 -0.52 -0.6 c0 -0.92 1.2 -3.16 1.76 -3.92 l0.04 -0.12 c0.32 -0.72 0.56 -1.44 0.96 -2.16 c0 -0.64 0.76 -1.12 1.08 -1.6 l-0.04 -0.16 c0.08 -0.2 0.16 -0.44 0.16 -0.68 c0 -1.32 0.84 -2.08 1.8 -2.96 c0.24 -0.08 0.24 -0.48 0.44 -0.48 c0.04 0 0.08 0.04 0.12 0.04 c0.4 -0.24 0.8 -1.04 1 -1.48 l0.08 -0.04 l0.08 0 l0.08 -0.04 c0.08 -0.28 0.32 -0.4 0.36 -0.72 l0.12 -0.2 c0.16 -0.08 1.04 -1.52 1.16 -1.76 c0 0.24 -0.08 0.48 -0.08 0.68 l0 0.12 c0.16 -0.32 0.48 -0.64 0.48 -1.04 c0 -0.08 -0.08 -0.12 -0.08 -0.24 l0.24 0 l0.16 -0.16 l-0.2 -0.08 c0 -0.2 -0.04 -0.24 -0.16 -0.36 l0.12 -0.24 c0.12 0.12 0.32 0.28 0.48 0.32 c0.08 -0.08 0.2 -0.12 0.28 -0.2 l0.12 0.04 l0.12 -0.12 l-0.08 -0.32 l0.04 -0.16 c-0.04 -0.08 -0.08 -0.16 -0.08 -0.24 c0.08 -0.16 0.28 -0.44 0.28 -0.64 l0.08 0 c0.08 0.08 0.12 0.16 0.16 0.24 l-0.12 0.24 l-0.24 0.04 l-0.04 0.16 l0.12 0.04 l0.12 -0.12 c0.2 -0.04 0.52 -0.2 0.52 -0.48 c0 -0.16 -0.28 -0.2 -0.28 -0.36 l0 -0.16 l0.12 -0.12 l0 -0.04 c0.04 -0.16 0.08 -0.28 0.16 -0.4 l0 -0.04 c-0.16 0 -0.32 0.16 -0.44 0.24 l-0.08 -0.16 l0.08 -0.12 c0 -0.08 0.08 -0.44 0.16 -0.44 c0.12 0.08 0.12 0.28 0.24 0.28 c0.2 0 0.88 -0.68 0.88 -0.92 l-0.12 -0.04 l-0.24 -0.24 c0.04 -0.08 0.12 -0.2 0.24 -0.28 l0.08 0.24 l0.16 0 l0.24 -0.16 c0.04 -0.2 -0.12 -0.68 0.24 -0.68 l0.24 0 c0.08 0 0.12 0 0.24 -0.16 l0.04 0.08 l-0.16 0.4 l0.08 0.04 l0.24 -0.04 l0.08 -0.16 c0 -0.36 -0.04 -0.76 -0.08 -1.12 l0.28 -0.32 c0.28 -0.04 0.24 -0.4 0.72 -0.56 c0 0.08 0.04 0.24 0.04 0.32 c0.2 0 0.24 -0.2 0.24 -0.4 l0 -0.48 c0 -0.28 0 -0.52 -0.04 -0.72 l0.36 -0.48 l0.28 0 c0 0.08 -0.08 0.2 -0.12 0.24 c0 0.12 0 0.2 0.08 0.24 c0.12 -0.04 0.36 -0.64 0.44 -0.8 l0.08 0.08 c-0.16 0.48 -0.12 1 -0.6 1.4 l-0.16 0.16 l0.08 0.04 c0.44 -0.16 1.04 -1.32 1.16 -1.32 l0.12 -0.2 l-0.28 0.04 l-0.08 -0.12 l0 -0.08 c0.4 -0.04 0.28 -1.6 0.92 -1.76 l0.16 0.04 l0.08 -0.12 l-0.04 -0.08 l0.16 -0.08 c0.08 -0.04 0.08 -0.16 0.12 -0.24 c0.2 -0.6 1.04 -0.72 1.32 -1.28 l0 0.04 s0.12 -0.12 0.12 -0.16 l0.28 -0.36 c0.08 -0.16 0.6 -0.96 0.88 -0.96 c0.08 0.08 0.24 0.08 0.36 0.12 l0.24 -0.12 l0.24 0.08 l0.16 -0.16 l0.12 0.08 c0.16 -0.08 0.24 -0.16 0.36 -0.2 c0.28 0 0.52 0 0.52 0.28 l0.12 0.12 c0.08 -0.12 0.12 -0.16 0.24 -0.16 z M15.76 26.52 l0.04 -0.08 l-0.04 -0.28 c0.32 -0.4 0.12 -0.96 0.24 -1.4 l-0.08 -0.12 c0.32 -0.52 0.44 -1.2 0.44 -1.8 c0 -0.12 0 -0.28 -0.04 -0.4 c0.32 -1.04 0.48 -2.04 0.48 -3.08 l0.2 -0.2 l-0.12 -0.08 c0 -0.44 0.24 -1.4 0.44 -1.92 l-0.04 -0.12 l-0.12 0.16 l0 -0.08 c0.04 -0.16 0.12 -0.44 0.12 -0.64 c0 -0.12 -0.04 -0.24 -0.04 -0.36 l-0.04 0.04 c-0.04 -0.08 -0.16 -0.08 -0.24 -0.08 c-0.12 0.16 -1.04 1.44 -1.2 1.52 c-0.48 0.24 -0.72 0.68 -1 1.04 l0 0 c-0.08 0.2 -0.08 0.28 -0.28 0.28 c-0.12 0 -0.44 0.68 -0.68 0.72 l-0.08 0.08 c-0.08 0.36 -1.4 1.84 -1.76 2.32 c-0.48 0.28 -0.68 1.16 -1.04 1.56 c-0.08 -0.12 -0.08 -0.32 -0.08 -0.48 c-0.16 0.12 -0.2 0.48 -0.28 0.6 l-0.12 0.08 c-0.4 0 -0.32 0.64 -0.32 0.84 l-0.12 -0.12 c-0.04 0.16 -0.2 0.2 -0.2 0.4 c-0.44 0.12 -0.44 0.76 -0.56 1.04 l0 -0.12 l0 -0.4 l-0.08 -0.04 c-0.32 0.48 -0.8 1.04 -0.84 1.6 l0.04 0.08 c-0.04 0.2 -0.16 0.32 -0.28 0.48 l-0.04 -0.12 l-0.16 0 c-0.08 0.2 -0.48 1.04 -0.48 1.24 l-0.12 0.12 l-0.08 -0.12 c-0.44 0.36 -0.44 1.08 -0.72 1.56 l-0.04 0.12 l0.44 -0.12 c0.08 -0.08 1.84 -0.56 2.08 -0.68 c1 0 1.8 -0.4 2.76 -0.4 c0.12 0 0.16 0.04 0.28 0.04 c0.04 -0.12 0.6 -0.12 0.76 -0.16 l0.08 0.04 c0.48 -0.12 0.96 -0.04 1.52 -0.12 l0.04 0.04 c1 -0.12 0.64 0.04 1.16 -0.6 c-0.08 -0.16 -0.16 -0.36 -0.16 -0.56 s0.16 -0.36 0.16 -0.56 l0.16 -0.16 c0 -0.08 -0.08 -0.2 -0.16 -0.28 c0 -0.08 0.08 -0.32 0.2 -0.32 z M16.68 25.52 c-0.04 0 -0.04 -0.08 -0.04 -0.12 c0 -0.2 0.2 -0.36 0.24 -0.6 l0.96 -6.8 c-0.28 0.12 -0.28 0.48 -0.28 0.68 l0 0.4 c-0.36 0.84 -0.24 1.8 -0.48 2.64 l-0.04 0.04 c0 0.88 -0.4 1.72 -0.4 2.64 l-0.08 -0.04 c0 -0.84 0.16 -2.2 0.44 -3 l-0.12 -0.04 c-0.24 0.48 -0.32 1.4 -0.44 1.96 l0 0.16 c-0.12 0.92 -0.32 1.76 -0.32 2.68 l0 0.28 c0.32 -0.4 0.12 -1.04 0.32 -1.52 l0.08 0 c0 0.04 0.08 0.16 0.08 0.2 c0 0.64 -0.4 2.96 -0.52 3.72 l0.08 0.08 c0 -0.8 0.28 -1.64 0.44 -2.4 l-0.04 -0.16 c0.08 -0.24 0.08 -0.52 0.12 -0.8 z M15.72 35.72 c0 -0.48 -0.04 -0.96 -0.08 -1.44 l-0.08 0 c-0.08 0.12 -0.16 0.24 -0.24 0.4 l0.08 0.12 l0 -0.04 l0.08 0.08 c0 0.08 0.04 0.12 0.04 0.2 c0 0.56 -0.16 1.08 -0.16 1.64 c0 0.04 0 0.16 0.04 0.2 l0 0.08 c0 0.08 -0.08 0.16 -0.08 0.24 l-0.04 0.08 c0.04 0.12 0.04 0.24 0.04 0.36 c0 0.36 -0.08 0.84 -0.08 1.16 l0 0.28 c0.2 -0.76 0.24 -1.4 0.24 -2.2 c0 -0.4 0.24 -0.8 0.24 -1.16 z M15.68 33.08 c0.32 -0.52 0.4 -2.44 0.4 -3.08 c0 -0.08 0 -0.16 -0.08 -0.2 l-0.08 0 c-0.16 0.52 0 1.64 -0.2 2.04 l0.04 0.12 c-0.08 0.16 -0.08 0.28 -0.12 0.44 c0.04 0.24 0.04 0.48 0.04 0.68 z M15.24 16.4 c-0.12 0.16 -0.16 0.24 -0.2 0.36 l0.2 0.08 c0.56 -0.56 0.2 -0.56 0.6 -0.92 l-0.08 -0.32 l-0.08 -0.04 l-0.2 0.12 c0.04 0.08 0.08 0.16 0.16 0.24 l0 0 c-0.16 0.16 -0.2 0.36 -0.28 0.56 z M17.52 18.32 l-0.08 0 l0 0 c-0.28 0.32 -0.36 2.08 -0.56 2.64 l0.12 0.16 c0.2 -0.92 0.2 -1.88 0.52 -2.8 z M7.4 26 l-0.08 -0.12 l0 -0.04 c0.2 -0.32 0.24 -0.64 0.56 -0.84 l0.04 0.04 c-0.08 0.16 -0.16 0.32 -0.16 0.48 c0 0.12 0.04 0.24 0.04 0.32 c0 0.12 -0.08 0.16 -0.32 0.16 l-0.08 0 z M6.24 27.64 l-0.12 0 l0 -0.08 c0.32 -0.36 0.48 -0.76 0.8 -1.12 l0.08 -0.04 l0 0.08 c-0.24 0.44 -0.36 0.88 -0.76 1.16 z M16.2 15.64 l0.08 0.08 c0.16 -0.16 0.4 -0.32 0.52 -0.56 l-0.04 -0.12 l-0.04 0.04 l0 -0.08 l-0.16 0 c-0.2 0.12 -0.32 0.44 -0.36 0.64 z M15.92 27.52 l0 0.16 c0.08 -0.2 0.2 -0.4 0.2 -0.64 c0 -0.2 0 -0.4 -0.04 -0.56 c-0.16 0.32 -0.16 0.68 -0.16 1.04 z M10.84 22.2 c-0.16 0.12 -0.2 0.2 -0.2 0.32 l0 0.16 l0.08 0.12 l0.12 0 c0 -0.16 0.04 -0.32 0.12 -0.44 l-0.04 -0.12 z M10.04 23.28 l0.08 0.08 l0.16 -0.16 c0 -0.08 0 -0.24 0.12 -0.32 l-0.08 -0.08 l-0.16 0.12 c0 0.16 -0.04 0.28 -0.12 0.36 z M17.56 17.36 c-0.16 0.28 -0.04 0.52 -0.16 0.8 l0.08 0 c0.04 -0.16 0.12 -0.36 0.12 -0.56 c0 -0.08 0 -0.16 -0.04 -0.24 z M14.4 17.6 l0.04 0.04 c0.16 -0.08 0.36 -0.24 0.36 -0.44 c-0.36 0.16 -0.28 0.12 -0.4 0.4 z M11.44 20.08 l-0.08 0 c0.04 -0.16 0.12 -0.32 0.24 -0.4 l0.12 0.04 l-0.2 0.36 l-0.08 0 z M4.32 31.04 l-0.08 -0.08 c0.08 -0.16 0.2 -0.32 0.32 -0.4 c-0.08 0.2 -0.04 0.32 -0.24 0.48 z M8.48 24.560000000000002 l-0.12 -0.16 l0.08 -0.24 l0.08 0.24 z M6.2 28.32 l-0.04 -0.04 l0.08 -0.28 l0.2 0.08 c-0.08 0.12 -0.16 0.2 -0.24 0.24 z M9.48 24.08 l-0.08 0.12 l0.2 0.12 l0.04 -0.12 l-0.08 -0.16 z M15.76 33.519999999999996 l0 -0.12 l-0.08 -0.04 l-0.12 0.12 l0.16 0.12 z M5.36 29.08 l-0.04 -0.04 l0.12 -0.16 l0.16 0.08 c-0.04 0.08 -0.16 0.08 -0.24 0.12 z M17.04 14.8 l-0.08 0.2 l0.08 0.04 l0.12 -0.12 z M9.4 23.2 l-0.04 -0.04 l0 -0.08 c0 -0.04 0.04 -0.16 0.04 -0.2 l0.12 0 c-0.04 0.08 -0.04 0.2 -0.04 0.28 z M5.12 29.64 l-0.04 -0.08 c0 -0.08 0.04 -0.16 0.12 -0.2 l0 0 z M18.08 16.72 c0 -0.04 0.04 -0.16 0.12 -0.2 l-0.12 -0.08 l0 0.28 z M15.84 28.240000000000002 l0.08 -0.24 l-0.04 -0.04 c0 0.04 -0.04 0.12 -0.04 0.12 l0 0.16 z M15.76 28.72 l0.08 -0.16 l-0.04 -0.04 z M11.36 22.64 l-0.16 0.08 l0.16 0.08 l0 -0.16 l0 0 z M8.36 24.68 l0.08 0 l0.04 0.08 l-0.08 0.04 z M7.88 26 l0.08 0 l0 0.08 l-0.08 0 l0 -0.08 z M2.32 35.12 l0.04 0 l0 -0.08 c0 0.04 0 0.08 -0.04 0.08 z M10.12 24.759999999999998 l-0.08 0 l0.08 -0.08 l0 0.08 z M4.68 30.4 l0 0.04 c-0.04 0.04 -0.04 0.04 -0.12 0.08 l0 -0.08 z M9.8 22.8 l-0.04 0 l-0.04 0 l0.08 -0.04 l0 0.04 z M11.88 19.6 c0 -0.08 0 -0.12 0.08 -0.16 z M9.36 24.48 l0 0.08 l0.04 -0.04 z M25.92 34.6 l-0.04 -0.08 l0.16 -0.2 l-0.08 -0.08 l0.12 -0.04 l-0.04 -0.12 c0.04 -0.08 0.04 -0.16 0.04 -0.24 l-0.16 0.08 l0.04 0.16 l-0.04 0.08 l-0.08 -0.12 c-0.08 0.28 -0.88 1.12 -1.12 1.4 l0.04 0 c-0.32 0.28 -0.4 0.76 -0.72 1.04 c-0.6 0.64 -1.28 1.08 -2.24 1.08 c-0.64 0 -1.68 -1.24 -1.68 -1.8 c0 -0.16 0.04 -0.32 0.2 -0.4 l-0.16 0.04 c-0.04 -0.08 -0.04 -0.16 -0.04 -0.24 c0 -0.56 0.16 -1.16 0.24 -1.76 c0.08 0.24 0.08 0.48 0.08 0.72 c0.08 -1.64 1.68 -3.16 1.88 -4.64 l-0.04 -0.04 c0 -0.16 0.28 -0.32 0.32 -0.48 l-0.04 -0.04 c-0.16 0.2 -0.28 0.36 -0.4 0.52 l0.04 0.04 c-0.12 1 -0.84 0.92 -0.84 1.72 l0 0.04 c0 0.12 -0.08 0.24 -0.2 0.24 l-0.16 -0.08 l0.16 -0.2 l0.04 0.04 c0.16 -1 0.96 -1.56 1 -2.04 l0.32 -0.48 l-0.08 -0.08 c0.12 -0.04 0.2 -0.08 0.28 -0.08 c0.2 0 0.32 0.12 0.32 0.28 l0.08 -0.04 l0.16 0.16 c0 -0.08 0.08 -0.12 0.16 -0.16 c0.12 0.12 0.56 0.56 0.56 0.72 c0 0.96 -1.04 1.64 -1.04 2.56 l0.04 0.04 c-0.04 0.36 -0.24 0.76 -0.36 1.08 l0.04 -0.04 l-0.08 0.16 l0 0.04 c0 0.32 -0.16 0.92 -0.44 1.16 l0.08 0.2 c-0.16 0.16 -0.16 0.4 -0.16 0.56 l0 0.32 c0 0.24 0 0.52 0.08 0.52 c0 0 0.76 -1 1.04 -1 c0 -0.04 -0.04 -0.08 -0.04 -0.12 c0 -0.36 0.76 -0.68 0.76 -0.92 l-0.04 -0.08 l0.16 -0.2 l0.04 0.04 l-0.04 -0.04 l0.12 -0.28 l-0.08 -0.04 c0.04 -0.12 0.8 -0.72 0.8 -0.92 l-0.08 -0.04 l0.08 -0.04 l0 -0.04 c0 -0.56 0.8 -0.68 0.8 -1.52 l0.12 -0.04 l-0.04 -0.12 l0 -0.04 c1.56 -0.56 1.4 -3.68 2.8 -3.68 l0.16 0.08 l0.04 0 l0.08 0.04 l0.16 -0.04 c0.44 0 0.68 0.04 0.88 0.48 c0 0.08 -0.04 0.16 -0.08 0.2 l0.04 0.08 c-0.2 0.48 -0.64 2.92 -1.08 3 l0.08 0.08 c-0.2 0.56 -0.8 1.96 -0.8 2.56 l0 0.08 c0 0.08 0 0.24 -0.04 0.32 l0.04 0.04 c0 0.16 -0.08 0.16 -0.2 0.2 l0.04 0.24 l0 0.04 l-0.04 0.28 c-0.2 1.04 -0.32 2.16 -0.48 3.2 l0.04 0.16 l-0.08 0.08 c0 0.16 0.04 0.24 0.04 0.36 c0 0.08 0 0.16 -0.04 0.24 c0.04 0.12 0.04 0.2 0.04 0.36 l0 0.16 l0 0.04 l-0.04 0.12 c0.08 0.08 0.12 0.2 0.12 0.36 c0 0.24 -0.08 0.52 -0.08 0.68 c0 0.4 0.52 0.64 0.52 1.24 l-0.12 0.12 l0.04 0.08 l-0.16 0.08 l-0.08 0 l-0.16 0.12 l-0.16 -0.08 l-0.08 0.08 c-0.12 -0.08 -0.96 -0.32 -0.96 -0.48 l0 -0.04 c-0.56 -0.2 -0.52 -1.12 -0.6 -1.12 l-0.12 0.08 c0 -0.16 0.12 -0.32 0.24 -0.44 l-0.12 0 l-0.12 -0.04 l0 0.16 l-0.08 -0.16 l0.2 -0.16 l-0.2 0.04 l0.08 -0.08 c0 -0.16 -0.04 -0.28 -0.08 -0.44 l0.08 -0.08 l-0.08 -0.04 l0.08 -0.08 l-0.08 -0.16 l-0.08 0.04 l0.16 -0.16 c-0.04 -0.04 -0.08 -0.32 -0.08 -0.24 c0 -0.24 0.04 -0.56 0.04 -0.88 c0 -0.12 -0.04 -0.24 -0.04 -0.32 l0.2 0 c-0.08 -0.04 -0.12 -0.16 -0.12 -0.28 c0 -0.16 0.12 -0.36 0.12 -0.52 l-0.12 -0.04 c0.24 -0.4 0.24 -0.68 0.32 -1.08 l-0.04 -0.12 l0.04 -0.08 l-0.04 -0.24 c0.08 0 0.12 -0.04 0.12 -0.12 l-0.08 -0.08 l0.12 -0.16 l-0.12 -0.12 z M23.96 36.4 l-0.04 0.04 c0.04 0.04 0.08 0.04 0.12 0.04 z M25.92 35.44 l0.12 -0.04 c-0.12 0 -0.12 0 -0.12 0.04 z M29.84 27.6 l-0.04 0 l0 0.04 z M25.6 40.36 c0 0 0 0.04 0.04 0.04 l0.04 0 c0 -0.04 -0.04 -0.04 -0.08 -0.04 z M25.88 33.96 l-0.04 0.04 c0.04 0 0.04 0 0.04 -0.04 z M25.92 35.44 c0 -0.04 0 -0.04 -0.04 -0.04 c0 0.04 0 0.04 0.04 0.04 z M38.24 15.280000000000001 c0 0.52 -0.84 1.44 -0.84 1.92 c-0.88 1.52 -1.84 4.92 -2.24 6.68 c-0.12 0.52 -0.52 1.2 -0.56 1.68 c0 0.28 -0.2 1.96 -0.52 1.96 c-0.12 0 -0.12 -0.08 -0.12 -0.08 l-0.12 0.12 c0 0.12 0.12 0.12 0.2 0.2 c-0.12 0.52 -0.68 2.08 -0.68 2.64 c0 0.04 0 0.08 0.04 0.12 c-0.12 0.36 -0.2 0.44 -0.2 0.72 c0 0.08 0 0.2 0.04 0.36 l-0.24 0.24 c0 0.12 0.04 0.24 0.04 0.4 c0 0.6 -0.64 2.68 -0.64 3.48 c0 0.12 0 0.2 0.04 0.24 c-0.24 0.2 -0.28 0.56 -0.28 0.88 l0 0.36 c0 0.8 0.04 2.36 0.36 2.84 c0.08 0.16 0.24 0.12 0.32 0.2 c0.16 0.2 0.48 0.8 0.8 0.8 c0.8 0 2 -1.64 2.4 -1.76 l0.04 0.16 c-0.64 1.44 -1.04 2.4 -3.24 2.4 c-2.4 0 -2.96 -2.28 -2.96 -3.64 c0 -0.32 0.04 -0.64 0.04 -0.96 c0 -0.28 -0.04 -0.56 -0.04 -0.84 c0 -0.24 0.28 -0.64 0.32 -0.88 c0.08 -1 0.28 -1.92 0.48 -2.92 l-0.04 -0.04 c0.52 -1.68 1.08 -3.84 1.08 -4.16 c0 -0.6 1.12 -3.64 1.28 -4.68 c0.2 -0.96 0.32 -2.04 0.68 -2.96 c0.44 -1.08 0.68 -0.56 0.96 -2.24 l-0.08 -0.08 c0.12 -0.76 0.44 -1.52 0.72 -2.2 c0.88 -0.6 0.28 -1.92 2.16 -1.92 c0.6 0 0.8 0.48 0.8 0.96 z M30.96 36.24 l0.08 -0.32 l0.04 0 s-0.04 -0.08 -0.04 -0.12 c0 -1 0.6 -3.88 0.88 -5 l-0.16 0.16 l-0.04 0 c0.04 -0.68 0.52 -1.4 0.72 -2.04 c0.48 -1.8 0.84 -3.56 1.52 -5.32 c0.36 -0.96 0.88 -1.92 1.2 -2.88 c-0.2 0.08 -1.8 3.72 -1.84 4.16 c-0.04 0 -0.04 -0.12 -0.04 -0.16 c0 -0.88 2.12 -5.32 2.44 -7.68 l-0.08 -0.08 c-0.12 0.24 -0.64 1.12 -0.64 1.28 l0.04 0 c-1 2.64 -1.56 5.36 -2.48 8 c-0.12 0.32 -0.2 0.56 -0.24 0.88 c-0.12 0.64 -1.44 5.48 -1.44 5.84 l0 0.04 c-0.44 1.24 -0.68 2.52 -0.68 3.84 c0 0.52 0 1 0.08 1.52 c0 0.04 -0.04 0.12 -0.04 0.12 c0 0.16 0.04 0.28 0.04 0.4 l0.08 -0.2 c0 -0.04 -0.04 -0.08 -0.04 -0.16 c0 -0.36 0.12 -0.76 0.16 -1.12 c0 0.52 0 1.08 0.16 1.56 c0.08 -0.12 0.24 -0.44 0.24 -0.56 c0 -0.2 -0.12 -0.36 -0.12 -0.56 c0 -0.32 0.28 -0.32 0.28 -0.52 c0 -0.16 -0.2 0.04 -0.2 -0.24 c0.2 -0.16 0.2 -0.44 0.32 -0.68 l-0.08 -0.24 z M32 37.24 c0 -0.08 0 -0.12 -0.12 -0.16 l-0.24 0.32 c-0.04 0 -0.12 -0.04 -0.12 -0.08 c-0.2 0 -0.2 0.36 -0.2 0.56 c0 0.12 0 0.24 0 0.2 c0 0.2 0.12 1 0.44 1 c0.12 0 0.12 -0.12 0.12 -0.16 c-0.08 -0.08 -0.08 -0.2 -0.08 -0.28 l0 -0.32 l-0.12 0.04 c-0.08 -0.04 -0.12 -0.12 -0.12 -0.2 s0.36 -0.84 0.44 -0.92 z M31.880000000000003 36.88 l0.16 -0.6 l-0.04 -0.12 c0.04 -0.04 0.04 -0.08 0.04 -0.16 l-0.16 0 c0 -0.16 0.16 -0.2 0.16 -0.28 s-0.24 -0.16 -0.24 -0.52 c-0.16 0 -0.24 0.76 -0.28 0.88 l0 0.36 c0 0.28 0 0.6 0.08 0.6 l0.08 -0.04 c0 -0.12 -0.04 -0.24 -0.08 -0.32 l0.08 -0.08 c0.12 0 0.08 0.16 0.2 0.28 z M32.04 33.44 l0.16 -0.04 l0 0.12 c0 0.16 -0.24 0.28 -0.28 0.44 l0.04 0.16 c-0.08 0.04 -0.08 0.12 -0.08 0.2 l0.08 0.12 c0.44 -0.4 0.6 -1.04 0.6 -1.4 c0 -0.12 -0.2 -0.16 -0.36 -0.16 c0 0.16 -0.08 0.36 -0.16 0.56 z M32.64 27.16 l0.12 0.04 c-0.12 0.32 -0.56 2.04 -0.76 2.2 c0.16 -0.8 0.32 -1.48 0.64 -2.24 z M35.480000000000004 18.6 c-0.28 0.08 -0.52 1.16 -0.64 1.44 c0.2 -0.28 0.64 -1.16 0.64 -1.44 z M32.96 29.92 l0.2 0.08 c0.12 -0.04 0.12 -0.08 0.12 -0.2 s0 -0.28 -0.08 -0.32 c-0.12 0.04 -0.12 0.32 -0.24 0.44 z M33.480000000000004 26 c-0.08 0.24 -0.08 0.52 -0.2 0.72 l0.04 0.08 c0.12 -0.16 0.2 -0.32 0.32 -0.48 c-0.16 -0.12 -0.16 -0.16 -0.16 -0.32 z M31.16 33.2 c0 -0.32 0 -1 0.36 -1.24 c-0.2 0.36 -0.32 0.88 -0.36 1.24 z M32.6 29.04 l0.12 0.04 c0.08 -0.12 0.16 -0.32 0.24 -0.4 c-0.08 -0.12 -0.04 -0.24 -0.12 -0.32 c-0.08 0.2 -0.12 0.48 -0.24 0.68 z M32.76 31.28 l-0.04 0 l0.04 -0.16 l0 -0.04 c-0.2 0.08 -0.32 0.32 -0.36 0.48 l0.04 0.08 c0.12 -0.08 0.2 -0.2 0.32 -0.36 z M31.16 35.36 l0.04 0.16 c0.12 -0.08 0.2 -0.24 0.2 -0.4 c0 0 0 -0.12 -0.08 -0.12 c-0.12 0.12 -0.16 0.24 -0.16 0.36 z M31.12 33.44 l0.04 0.16 c-0.04 0.12 -0.12 0.24 -0.16 0.36 c0 0.04 0.04 0.08 0.04 0.16 c0 0.04 -0.04 0.08 -0.04 0.08 c-0.04 -0.04 -0.04 -0.12 -0.04 -0.2 c0 -0.12 0.04 -0.48 0.16 -0.56 z M33.96 24.439999999999998 c-0.12 0 -0.16 0.32 -0.16 0.4 c0 0.04 0.04 0.12 0.12 0.16 l0.16 -0.08 c-0.12 0 -0.12 -0.2 -0.12 -0.32 l0 -0.16 z M33.36 28.92 l-0.04 -0.16 c-0.12 0 -0.24 0.24 -0.24 0.32 c0.16 0 0.24 -0.04 0.28 -0.16 z M32.08 32.64 l-0.04 -0.04 c-0.12 0.08 -0.16 0.2 -0.16 0.32 c0.08 0 0.16 -0.2 0.2 -0.28 z M32.04 33.44 l-0.08 0 c-0.08 0 -0.24 0 -0.28 0.08 c0.04 0 0.2 0.08 0.24 0.08 c0.12 0 0.08 -0.08 0.12 -0.16 z M33.08 30.560000000000002 l0.08 -0.04 l-0.08 -0.24 l-0.16 0.2 c0 0.08 0.08 0.08 0.12 0.08 l0.04 0 z M31.72 34.92 l0.16 0.12 l0.08 -0.24 l-0.04 -0.04 z M32.2 34.72 l-0.16 0.12 l0 0.04 c0 0.04 0.04 0.08 0.12 0.08 l0.16 -0.16 z M32.08 34.480000000000004 l0.08 0.12 l0.08 -0.12 l-0.08 -0.16 z M34.28 23.52 l-0.2 0.4 l0.04 0 c0.08 0 0.16 -0.32 0.16 -0.4 z M33.480000000000004 28.32 l-0.08 -0.08 c-0.04 0 -0.08 0.08 -0.12 0.12 l0.16 0.04 z M33.84 25.2 l-0.04 0 c-0.08 0 -0.12 0.04 -0.12 0.16 l0.04 0 c0.08 0 0.08 -0.08 0.12 -0.16 z M33.24 25.32 l-0.04 -0.16 l0.08 -0.12 c0 0.04 -0.04 0.24 -0.04 0.28 z M31.16 38.52 l-0.08 0.08 l0.08 0.04 l0.08 0 z M32.44 29.92 l0.08 -0.08 l-0.08 -0.08 c-0.04 0.04 -0.04 0.08 -0.04 0.08 z M32.76 26.759999999999998 c0 0.04 0 0.16 -0.12 0.2 l-0.04 0 c0.04 -0.08 0.12 -0.16 0.16 -0.2 z M32.76 32.2 l-0.04 -0.16 l0 0.2 z M31.880000000000003 32.44 l-0.12 0.12 l0.04 0.04 c0.08 0 0.08 -0.04 0.08 -0.04 l0 -0.12 z M32.2 40.96 l-0.04 -0.08 c-0.04 0.04 -0.12 0.04 -0.12 0.12 l0.08 0.04 z M31.880000000000003 38 l-0.08 -0.08 l-0.08 0.12 c0.04 0 0.16 -0.04 0.16 -0.04 z M33.72 26.08 l0.04 -0.08 l0 -0.04 l-0.12 0.04 z M32.76 31.6 l0.08 0 l-0.08 -0.04 l0 0.04 z M32.44 32.32 c-0.04 0 -0.04 0 -0.04 0.08 l0 0 c0.04 0 0.04 -0.04 0.04 -0.08 z M33.4 28 c0.04 0 0.04 0.04 0.04 0.08 l0.08 -0.04 c-0.04 -0.04 -0.08 -0.04 -0.12 -0.04 z M32.8 30.32 c0.04 0.04 0.04 0.04 0.08 0.04 c0 -0.04 0 -0.04 0.04 -0.04 l-0.12 0 z M31.6 39.56 c-0.04 0.04 -0.04 0.04 -0.04 0.08 l0.04 0 l-0.04 0 c0 -0.04 0.04 -0.04 0.04 -0.08 z M30.560000000000002 37.04 c0 0.16 0 0.24 -0.08 0.36 c0.08 -0.12 0.08 -0.2 0.08 -0.36 z M32.92 30.96 l0 0.04 l0.04 -0.04 l-0.04 0 l0 0 z M31.52 39.32 c0 0.04 0 0.04 0.04 0.04 l0.04 -0.04 c-0.04 0 -0.04 0 -0.04 -0.04 c-0.04 0 -0.04 0 -0.04 0.04 z M33.72 27.119999999999997 l-0.04 0 c0.04 0 0.04 0 0.04 0.04 c0.04 0 0.04 0 0.04 -0.04 l-0.04 0 z M33.08 29.32 l0 -0.04 c-0.04 0.04 -0.04 0.04 -0.04 0.08 l0.04 -0.04 l0 0 z M31.76 33.84 l-0.04 0 l0 0.04 c0.04 0 0.04 0 0.04 -0.04 z M33.08 27.6 l0 0.08 l0 -0.08 z M30.880000000000003 36.76 l0 -0.04 l0.08 0 c0 0.04 0 0 -0.08 0.04 z M31.880000000000003 40.28 l-0.08 0.08 c0.08 0 0.08 -0.04 0.08 -0.04 l0 0 l-0.08 0 s0.08 0 0.08 -0.04 z M48.519999999999996 19.36 c0 0.12 0.12 0.24 0.16 0.4 c0.12 -0.08 0.16 -0.24 0.16 -0.4 c0 -0.08 0 -0.16 -0.12 -0.16 c-0.04 0 -0.16 0.12 -0.2 0.16 c0.16 -0.32 0.24 -2.12 0.6 -2.12 c0.44 0 0.08 -0.44 0.4 -0.52 c-0.16 -0.04 -0.2 -0.16 -0.24 -0.28 c0.16 -0.76 0.68 -1.4 0.68 -2.04 c0 -0.08 -0.24 -0.32 -0.24 -0.56 c0 -0.2 0.28 -0.8 0.52 -0.8 s0.32 0.32 0.44 0.32 c0.04 -0.04 0.16 -0.12 0.24 -0.12 c0.16 0.08 0.28 0.28 0.4 0.4 c0.16 0 0.16 -0.36 0.28 -0.36 c0.44 0 0.2 0.32 0.36 0.32 c0 0 0.08 -0.08 0.08 -0.12 l0 -0.04 c0.12 0 0.36 0.24 0.6 0.24 c0.04 0 0.08 -0.04 0.08 -0.04 l0.16 0.04 l-0.08 0.2 c0.04 0.08 0.08 0.28 0.08 0.36 c0 0.2 -0.24 0.16 -0.24 0.36 c0 0.12 0.08 0.32 0.08 0.44 c0 0.2 -0.52 0.48 -0.56 0.96 c-0.12 0.32 -0.24 0.96 -0.52 1.2 c-0.32 0.32 -0.24 1.52 -0.68 2.24 l0 0.08 c0 0.08 -0.04 0.2 -0.08 0.28 l0.04 0.08 c-0.16 0.12 -0.24 0.36 -0.24 0.52 c0 0.08 0.04 0.2 0.04 0.32 c0 0.16 -0.04 0.24 -0.12 0.24 l-0.08 -0.04 c-0.08 0.2 -0.4 0.76 -0.4 0.92 c0 0.96 -0.56 1.44 -0.56 1.96 c0 0.12 0.04 0.24 0.04 0.32 c0 0.28 -0.24 0.44 -0.24 0.56 l0.04 0.16 c0 0.2 -0.56 1.64 -0.56 2 c0 0.12 0.04 0.24 0.04 0.36 c0 0.08 0 0.2 -0.04 0.32 l0 0.04 c0 0.24 -0.56 0.72 -0.56 1.28 l0.04 0.12 l-0.04 0.12 c0 0.12 0.08 0.28 0.08 0.4 c0 0.64 -0.64 0.68 -0.64 1.92 c0 0.2 0.08 0.4 0.08 0.64 c0 0.36 -0.36 0.8 -0.36 1.16 c0 0.08 0.12 0.16 0.16 0.16 c0 0.12 -0.12 0.16 -0.12 0.28 c0 0.04 0.04 0.16 0.08 0.2 c-0.08 0.24 -0.16 0.48 -0.16 0.72 c0 0.08 0.04 0.16 0.04 0.24 c0 0.52 -0.28 0.64 -0.28 0.8 s0.08 0.32 0.08 0.48 c0 0.08 -0.04 0.16 -0.16 0.32 c0 0.16 0.08 0.24 0.08 0.36 c0 0.16 -0.12 0.28 -0.12 0.4 c0 0.04 0.08 0.36 0.12 0.4 c-0.08 0.08 -0.08 0.16 -0.08 0.24 l0 0.2 c0 0.68 -0.16 1.28 -0.16 1.92 l0 0.48 s0 0.32 -0.2 0.48 l0.12 0.16 c-0.04 0.12 -0.04 0.64 -0.04 0.8 c0 0.04 0.04 0.12 0.12 0.16 c-0.08 0.04 -0.08 0.16 -0.08 0.2 c0 0.44 0.24 0.96 0.24 1.12 c0 0.12 -0.08 0.2 -0.08 0.28 c0 0.16 0.08 0.36 0.08 0.48 c-0.12 0.16 -0.36 0.32 -0.56 0.32 c-0.16 0 -0.28 -0.04 -0.32 -0.12 c-0.08 0.08 -0.12 0.08 -0.16 0.08 c-0.24 0 -0.4 -0.36 -0.64 -0.36 l-0.12 0.08 c-0.68 0 -0.8 -1.56 -0.8 -1.84 c0 -0.12 0.04 -0.44 0.12 -0.56 c0.04 0.2 0.36 0.28 0.36 0.48 s-0.08 0.48 -0.08 0.76 c0 0.2 0.04 0.36 0.16 0.48 l0.2 -0.04 c-0.08 -0.08 -0.16 -0.4 -0.16 -0.56 c0 0 0.08 -0.12 0.08 -0.16 c0 -0.16 -0.2 -0.56 -0.2 -0.8 c0 -0.36 0.12 -0.76 0.12 -1.12 c0 -0.2 -0.08 -0.4 -0.08 -0.6 c0 -0.32 0.24 -0.56 0.24 -0.88 l0.04 0 c0.08 0 0.16 0.4 0.16 0.68 c0 0.16 -0.04 0.24 -0.04 0.28 l0 1.24 c0.08 -0.24 0.24 -0.48 0.24 -0.72 l-0.12 -0.16 c0 -0.08 0.12 -0.16 0.12 -0.28 c-0.12 -0.04 -0.12 -0.12 -0.12 -0.2 c0 -0.32 0.2 -0.8 0.32 -0.96 c-0.08 -0.04 -0.16 -0.16 -0.16 -0.28 c0 -0.32 0.16 -0.68 0.2 -1 c-0.04 -0.16 -0.08 -0.32 -0.08 -0.48 c0 -0.08 0 -0.2 0.04 -0.32 c0 -0.16 0 -0.76 0.2 -0.84 c-0.08 -0.12 -0.12 -0.2 -0.12 -0.28 c0 -0.12 0 -0.24 0.12 -0.32 c0 -0.24 -0.08 -0.44 -0.08 -0.64 s0.08 -0.4 0.2 -0.68 l0.04 0.04 c0.12 0 0.16 -0.16 0.16 -0.28 s-0.16 -0.2 -0.16 -0.36 c0 -0.4 0.16 -0.84 0.4 -1.16 c0 -0.2 -0.04 -0.44 -0.04 -0.6 c0 -0.28 0.68 -1.84 0.68 -2.4 c0 -0.16 -0.12 -0.24 -0.28 -0.32 c-0.2 0 -0.32 0.52 -0.36 0.64 l0 0.08 c0 0.28 -0.4 0.84 -0.4 1.28 c0 0.08 0.12 0.16 0.12 0.24 c-0.04 0.12 -0.16 0.4 -0.28 0.4 l-0.12 -0.12 c0 -0.2 0.12 -0.6 0.2 -0.76 l-0.08 -0.16 c-0.08 0.12 -0.28 0.32 -0.28 0.44 c0 0.04 0.08 0.04 0.08 0.08 c-0.04 0.08 -0.16 0.12 -0.16 0.24 c0 0.04 0.04 0.12 0.04 0.16 s-0.04 0.08 -0.08 0.16 l0.16 0.36 c0.08 -0.08 0.12 -0.16 0.24 -0.16 l0 0.16 c0 0.08 0.04 0.16 0.08 0.24 c0 0.08 -0.08 0.16 -0.2 0.16 c-0.04 -0.08 -0.08 -0.2 -0.16 -0.24 c0 0.12 -0.08 0.2 -0.28 0.28 l-0.24 -0.2 c0.04 -0.08 0.04 -0.08 0.04 -0.12 c0 -0.12 -0.12 -0.12 -0.12 -0.28 l0.04 0 l-0.04 -0.04 l0.08 -0.12 l-0.2 -0.28 l-0.08 0.12 c0 0.12 0.04 0.24 0.2 0.32 c-0.56 0.36 -1.04 0.88 -1.36 1.36 l0 -0.04 c-0.24 0 -0.4 1.08 -0.8 1.08 c-0.08 0 -0.16 -0.04 -0.2 -0.04 l-0.16 0.12 c-0.32 0.08 -0.84 0.56 -0.96 0.56 c-0.6 1.04 -1.52 1.72 -2.16 2.6 l0 0.08 c0 -0.04 -0.12 0.04 -0.2 0.08 l-0.32 0.24 c-0.36 0.2 -0.84 0.48 -1.28 0.48 c-2.24 0 -1.72 -0.2 -2.8 -1.72 c0.12 -0.24 0.2 -1.44 0.4 -1.52 c0.12 0.04 0.16 0.04 0.2 0.04 c0.64 0 0.6 -1.44 1 -1.84 c0 -0.24 -0.36 -0.24 -0.36 -0.52 l0 0 c0 -0.52 0.96 -1.2 1.24 -2.36 c0.12 -0.64 1.12 -1.96 1.64 -2.44 c0.24 -0.76 1.16 -0.8 1.96 -0.8 l0.48 0 c0.72 0 1.56 0.16 1.72 0.84 l-0.04 0.04 c0 0.16 0.24 0.24 0.24 0.4 c0 0.48 0.12 0.96 0.12 1.44 c0 0.64 -1.12 1.16 -1.72 1.16 c-0.16 0 -0.32 -0.04 -0.36 -0.2 c0.2 -0.08 0.2 -0.24 0.2 -0.48 l0 -0.2 c0 -0.12 0 -0.2 0.04 -0.28 c-0.04 -0.24 -0.2 -0.48 -0.28 -0.64 c-0.12 0 -0.2 0.04 -0.32 0.12 l0 0.04 l-0.24 0.32 c-0.36 0.48 -0.48 1.4 -1.12 1.76 l-0.04 0.12 l-0.56 0.72 c0 0.52 -0.84 1.32 -0.84 1.72 l0 0.16 c-0.16 0.36 -0.28 0.6 -0.56 0.88 l0.2 0.12 c0 0.28 -0.2 0.64 -0.36 0.92 c0.04 0.04 0.12 0.16 0.2 0.2 c0.16 -0.2 0.4 -0.28 0.68 -0.28 l0.12 0.08 c0 0.08 -0.12 0.12 -0.16 0.12 l-0.12 0 c0.08 0.12 0.36 0.16 0.44 0.16 c0 0 0.24 -0.2 0.28 -0.24 c0 -0.04 0 -0.12 -0.12 -0.12 c-0.04 0 -0.08 0.04 -0.12 0.04 l0 -0.16 c0 -0.24 0.04 -0.32 0.28 -0.52 l0.08 0.08 l-0.08 0.2 l0.68 -0.28 c-0.04 -0.04 -0.04 -0.08 -0.04 -0.08 c0 -0.12 0.2 -0.12 0.2 -0.2 l-0.2 -0.16 c0 -0.08 0.04 -0.12 0.12 -0.12 c0.64 0 0.4 -1.2 1.24 -1.2 l0.04 0.04 l-0.04 0.2 l0.04 0.04 c0.04 0 1.44 -1.32 1.52 -1.48 c0.36 0 0.24 -0.88 1.12 -1.12 c0.2 -0.32 0.8 -0.48 0.8 -0.96 c0 -0.2 0.72 -0.32 0.72 -0.8 c0 -0.04 -0.08 -0.28 -0.08 -0.44 s0.08 -0.32 0.24 -0.32 c0.08 0.04 0.08 0.12 0.08 0.16 c0.32 -0.12 0.24 -0.28 0.36 -0.48 c-0.12 -0.2 -0.36 -0.48 -0.36 -0.68 c0 -0.16 0 -0.4 0.24 -0.4 l0.12 0.08 c-0.08 0.12 -0.08 0.24 -0.08 0.32 l0.08 0.16 l0.24 -0.08 c-0.04 -0.08 -0.16 -0.16 -0.16 -0.24 c0 -0.72 0.76 -1.48 0.76 -2.24 l0 -0.16 c0.24 0.04 0.56 0.08 0.72 0.32 c-0.04 0 -0.04 0.08 -0.04 0.12 s0.04 0.12 0.08 0.12 l0.04 0 c0.08 0 0.16 -0.12 0.2 -0.2 c0 -0.32 -0.4 -0.2 -0.4 -0.52 c0 -0.04 0.08 -0.16 0.08 -0.2 l-0.12 -0.12 c0 0.08 -0.04 0.16 -0.16 0.16 c-0.08 0 -0.24 -0.08 -0.28 -0.16 l0.12 -0.28 c0.12 0 0.2 0.08 0.32 0.08 c0.04 -0.04 0.16 -0.12 0.16 -0.16 c0 -0.12 -0.12 -0.12 -0.2 -0.12 l-0.12 0 c-0.08 0 -0.16 0 -0.16 -0.04 c0 -0.08 0.08 -0.12 0.16 -0.12 c0.04 0 0.32 0.04 0.4 0.08 l0.08 -0.08 c0 -0.12 -0.52 -0.24 -0.52 -0.48 c0 -0.32 0.16 -0.56 0.32 -0.84 l0 -0.28 c0 -0.04 0 -0.12 0.08 -0.32 c0 0 0.12 0 0.16 0.08 l-0.04 0.12 c0.04 0.12 0.04 0.24 0.12 0.28 c0.16 0 0.44 -0.2 0.44 -0.32 c0 -0.24 -0.52 -0.2 -0.52 -0.6 c0 -0.2 0.2 -0.28 0.28 -0.44 c0.24 0.04 0.12 0.2 0.2 0.32 c0.04 -0.12 0.32 -0.8 0.32 -0.84 s-0.08 -0.04 -0.12 -0.04 c-0.16 0 -0.16 0.12 -0.2 0.16 l-0.04 0 c0.08 -0.2 0.24 -0.64 0.24 -0.8 c0 -0.12 -0.2 -0.16 -0.2 -0.28 s0.24 -0.24 0.44 -0.76 z M36.76 33.12 c0.28 -0.56 0.4 -1.2 0.92 -1.64 l-0.08 0 c0 -0.04 0.12 -0.16 0.16 -0.16 l0.16 -0.32 c0.24 -0.32 0.48 -0.68 0.6 -1 l-0.08 -0.08 c-0.12 0.08 -1 1.6 -1.84 2.76 c0.04 0.04 0.04 0.08 0.04 0.12 c0 0.12 -0.12 0.16 -0.24 0.24 l0.2 0.16 z M49 21.76 l0.12 -0.04 c-0.12 -0.16 -0.12 -0.36 -0.24 -0.52 c-0.24 0.16 -0.04 0.48 -0.4 0.64 l0 0.08 c-0.04 0.08 -0.16 0.2 -0.16 0.28 c0 0.12 0.12 0.44 0.16 0.48 l-0.04 0.2 l0.04 0.08 c0.2 0 0.44 -0.52 0.44 -0.64 c0 -0.08 -0.12 -0.2 -0.2 -0.28 c0.04 -0.12 0.12 -0.28 0.28 -0.28 z M48.480000000000004 23.68 l0 -0.2 s-0.24 -0.24 -0.36 -0.32 l0 0.04 c0 0.08 0 0.12 0.04 0.2 c0 0.08 -0.04 0.2 -0.08 0.24 l0.04 0.08 c0 0.72 -0.52 0.64 -0.52 1.68 c0 0.12 0.04 0.16 0.04 0.28 c0.4 -0.36 0.36 -1.68 0.84 -2 z M36.36 33.519999999999996 c-0.2 0.16 -0.6 0.72 -0.6 0.84 c0 0.2 0.2 0.36 0.2 0.56 c-0.16 0 -0.32 0.08 -0.36 0.2 l-0.12 0 l-0.12 -0.04 c0.12 -0.24 0.64 -1.72 0.8 -1.72 z M45.84 27.439999999999998 l-0.04 0.04 l-0.12 -0.04 l0 0.08 c0.04 0 0.16 -1.64 0.48 -1.64 c0.04 0 0.04 0.12 0.04 0.16 c0 0.44 -0.32 0.96 -0.36 1.4 z M49.2 15.8 l-0.2 -0.04 c0.16 -0.36 0.32 -0.92 0.6 -1.24 l0.04 0.08 c0 0.2 -0.36 1 -0.44 1.2 z M45.32 36.6 c0 -0.16 0.12 -0.48 0.16 -0.6 l0.04 0 c0.16 0 0.16 0.12 0.16 0.2 s0 0.6 -0.2 0.6 c-0.08 0 -0.16 -0.04 -0.16 -0.08 l0 -0.12 z M49.72 19 c0 -0.04 -0.04 -0.16 -0.08 -0.2 c-0.08 0.28 -0.32 0.64 -0.32 0.92 l0.04 0 c0.08 0 0.36 -0.6 0.36 -0.72 z M45.36 38.32 c0.04 0.08 0.04 0.16 0.04 0.2 l0 0.4 c-0.12 0 -0.24 -0.12 -0.24 -0.28 s0.08 -0.24 0.16 -0.36 z M46.92 26.8 l0.32 -0.24 c-0.04 -0.12 -0.16 -0.24 -0.32 -0.24 l-0.08 0.08 c0 0.08 0.08 0.16 0.12 0.2 z M36.64 35.2 l-0.08 -0.12 l-0.04 0 c-0.12 0 -0.16 0.2 -0.16 0.32 l0.04 0.16 c0.12 -0.12 0.2 -0.24 0.24 -0.36 z M48.480000000000004 17.6 l-0.08 0 c0.04 -0.2 0.08 -0.4 0.24 -0.56 l0.08 0.04 c0 0.2 -0.08 0.4 -0.24 0.52 z M48.8 16.72 l-0.04 0 c0 -0.16 0 -0.44 0.24 -0.44 c-0.04 0.16 0 0.4 -0.2 0.44 z M47.6 23.12 c-0.04 0.08 -0.12 0.16 -0.12 0.28 c0 0.04 0.04 0.08 0.08 0.12 c0.12 -0.04 0.12 -0.2 0.12 -0.32 z M45.480000000000004 37.6 c-0.04 0.2 -0.16 0.32 -0.2 0.52 l-0.04 -0.08 c0 -0.16 0.08 -0.32 0.08 -0.48 c0 0 0.16 0 0.16 0.04 z M44.96 37.2 l-0.04 0 c0.04 -0.12 0.16 -0.12 0.24 -0.12 s0.12 0.04 0.16 0.04 l0.04 0.08 l-0.32 0.04 z M49.120000000000005 20.72 l0.04 -0.08 c-0.08 -0.08 -0.2 -0.12 -0.32 -0.12 l0 0.08 l0.16 0.12 l0.12 0 z M45.84 33.16 l0.04 0 c-0.04 0.2 -0.04 0.36 -0.04 0.52 c-0.04 0 -0.08 0 -0.08 -0.08 s0.04 -0.4 0.08 -0.44 z M46.2 25.72 l-0.04 -0.04 c0.04 -0.12 0 -0.32 0.08 -0.48 c0 0.08 0 0.16 0.04 0.2 c0 0.12 0 0.24 -0.08 0.32 z M48.4 20.16 c0 0.08 0.08 0.12 0.12 0.16 l0.12 -0.04 c0 -0.04 0 -0.2 -0.16 -0.2 z M45.480000000000004 42.2 l0 -0.12 l0 -0.12 c-0.04 -0.04 -0.08 -0.04 -0.12 -0.04 c0 0.08 0 0.24 0.04 0.32 z M45.64 34.64 c0 0 0.04 -0.08 0.04 -0.12 c0.12 0 0.08 0.12 0.12 0.16 l-0.32 0.12 z M41.88 32.92 l0.16 -0.16 l0.12 0.12 c-0.08 0.08 -0.2 0.08 -0.24 0.16 z M44.88 35.36 l-0.08 -0.12 l0.08 -0.16 c0.04 0.04 0.08 0.08 0.08 0.12 z M35.48 35.8 c0.08 0 0.16 -0.04 0.16 -0.04 l0 -0.12 c-0.08 0 -0.16 0.08 -0.16 0.12 l0 0.04 z M36.160000000000004 35.12 l0.24 0 c-0.04 -0.08 -0.16 -0.16 -0.24 -0.16 l0 0.16 z M44.64 30.16 l-0.04 0 l0.04 -0.16 l0.16 0.04 c0 0.08 -0.04 0.12 -0.16 0.12 z M46.92 26.96 l0 -0.16 l-0.16 0.04 l0 0.08 c0 0.04 0.08 0.04 0.16 0.04 z M43.72 30.92 c0 -0.12 0 -0.24 0.2 -0.24 c0 0.12 -0.04 0.24 -0.2 0.24 z M40.76 34.64 l-0.08 -0.16 l-0.12 0.12 l0.04 0.12 z M44.76 31.119999999999997 c0 -0.08 -0.12 -0.16 -0.16 -0.16 l-0.04 0.08 l0.16 0.08 l0.04 0 z M46.16 30.439999999999998 l-0.04 -0.08 l-0.08 0.04 l0 0.16 s0.12 -0.08 0.12 -0.12 z M45.76 34.32 c-0.08 0 -0.08 -0.12 -0.08 -0.16 c0.04 0 0.12 0 0.12 0.08 c0 0.04 0 0.08 -0.04 0.08 z M45.44 35.4 l0.08 0.08 c0 0.08 -0.04 0.08 -0.08 0.12 l-0.08 -0.16 z M38.2 36.76 l-0.08 -0.08 l-0.12 0.04 l0.12 0.12 z M44.519999999999996 39.6 l-0.04 -0.04 l0.08 -0.16 l0.04 0.04 z M49.2 20.32 l0.04 -0.2 l-0.04 -0.04 l-0.04 0.2 z M47.08 29.52 l0 0.16 l-0.12 -0.08 c0 -0.08 0.04 -0.08 0.12 -0.12 l0 0.04 z M49 18.48 l0.16 0.08 l0.04 -0.08 l-0.2 0 z M47.6 28.6 l0.04 -0.04 l-0.08 -0.08 l0 0.04 s0 0.08 0.04 0.08 l0 0 z M43.480000000000004 31.28 l-0.12 0.04 c0.04 -0.04 0.04 -0.08 0.08 -0.16 z M44.56 40.48 c0 0.04 -0.04 0.04 -0.08 0.04 l-0.08 0 c0.04 -0.04 0.04 -0.08 0.08 -0.12 z M45.28 32.76 l-0.04 0.04 l-0.08 -0.08 l0 -0.04 l0 0.04 s0.08 0.04 0.12 0.04 z M45 35.44 l0.16 -0.04 l0 0.04 l-0.08 0.04 c-0.04 0 -0.04 -0.04 -0.08 -0.04 z M40.4 34.88 l0.04 -0.08 c-0.08 0 -0.08 0 -0.08 0.04 z M36.84 34.480000000000004 c0 -0.12 0 -0.08 -0.08 -0.16 c0 0.04 0 0.12 0.04 0.16 l0 0 l0.04 0 z M41.28 34.480000000000004 l0.04 0 l-0.04 -0.08 l-0.04 0.08 l0.04 0 z M44.88 35.8 l-0.04 -0.04 c0.04 -0.04 0.04 -0.08 0.04 -0.12 c0 0.04 0 0.12 0.04 0.12 z M46.2 28.08 l0.08 -0.08 l-0.04 -0.04 c0 0.04 -0.04 0.04 -0.04 0.08 l0 0.04 z M46.519999999999996 28.28 c0 -0.04 0.04 -0.04 0.04 -0.04 l-0.08 0 l0 0 s0 0.04 0.04 0.04 z M41.96 34.6 l0.08 -0.08 l-0.08 -0.04 l0 0.08 l0 0.04 z M46.28 25.2 l-0.04 0 l-0.04 -0.04 l0.04 -0.04 z M44.96 37.48 l-0.08 0.04 c0 -0.04 0 -0.04 0.04 -0.08 z M45.16 41.44 l0.04 0 c0 -0.04 -0.04 0 -0.04 -0.08 l-0.28 0.04 z M44.56 39.04 l-0.04 0.04 c0 -0.04 0 -0.04 -0.04 -0.04 c0 -0.04 0 -0.04 0.04 -0.04 c0 0.04 0 0.04 0.04 0.04 z M47.44 28.6 l0 0.04 l0.12 -0.04 l-0.12 0 z M48.56 19.04 l-0.04 -0.04 c0 0.04 0 0.08 0.04 0.08 l0.08 -0.04 l-0.08 0 z M44.480000000000004 39.88 l0.04 -0.08 l0 -0.04 l0 0.04 l0 0.12 c-0.04 0 -0.04 -0.04 -0.04 -0.04 z M43.88 31.16 l0.04 -0.04 l0 0.12 z M44.84 40.68 l0 0.04 l-0.04 0 z M39 35.96 l0 0.04 l0.04 -0.04 l-0.04 0 z M48.32 17.84 l0.04 0.04 c-0.04 0 -0.04 -0.04 -0.04 -0.04 l0 0 z M45.480000000000004 29.28 l0 -0.04 l0 0.04 z M55.839999999999996 43.76 c0.16 -0.4 0.64 -1.44 0.76 -1.44 l0 0.04 c0.28 0 0.2 -1 0.6 -1.16 l-0.04 0.08 l0.16 -0.12 l-0.08 -0.04 l-0.08 0.08 c0 -0.08 -0.08 -0.16 -0.08 -0.36 s0.4 -0.68 0.48 -0.92 l0.04 0.04 c-0.08 0.08 -0.08 0.12 -0.08 0.2 s0.04 0.16 0.04 0.24 c0.2 -0.2 0.12 -0.52 0.24 -0.8 c0 0 -0.04 -0.08 -0.04 -0.12 c0 -0.28 0.24 -0.72 0.24 -0.92 c0 -0.04 -0.04 -0.08 -0.04 -0.08 l0.08 0 c0.08 0 0.16 0 0.16 -0.12 l-0.08 -0.04 c-0.04 0 -0.16 0 -0.16 -0.08 c0 -0.24 0.24 -0.44 0.24 -0.72 l-0.12 -0.16 c0.08 -0.2 0.28 -0.36 0.32 -0.6 l-0.12 0.08 c0 -0.24 0.12 -0.44 0.28 -0.56 l-0.08 -0.04 l-0.04 0.04 l-0.16 -0.04 l0.16 -0.36 l-0.04 -0.12 c0 -0.16 0.16 -1.16 0.32 -1.16 c0.04 0.04 0.04 0.12 0.2 0.12 l0.16 -0.4 c0 -0.12 -0.16 -0.2 -0.16 -0.32 l0.04 -0.16 l0.04 0.04 c0 0.04 -0.04 0.04 -0.04 0.04 l0.08 0.08 l-0.04 0 c0 -0.08 0.04 -0.12 0.08 -0.16 l-0.08 -0.12 l0.12 -0.04 l-0.12 -0.12 c0 -1 0.44 -2.6 0.8 -3.24 l-0.08 -0.08 l-0.12 0.28 c-0.04 0 -0.04 -0.04 -0.04 -0.04 c0.04 -0.08 0.08 -0.32 0.08 -0.44 c0 -0.04 -0.04 -0.04 -0.08 -0.04 c-0.28 0 -1.2 1.72 -1.48 2 c-0.28 0.76 -0.96 1.68 -1.04 1.72 l0.04 0.08 c0 0.08 -0.16 0.2 -0.24 0.24 l-0.04 0 c-0.16 0.2 -0.2 0.12 -0.2 0.28 l0 0.12 c0 0.2 -1.12 1.24 -1.36 1.48 c-1.24 1.4 -2.4 2.44 -4.36 2.44 c-1.16 0 -2.32 -0.68 -2.32 -1.8 c0 -0.32 0.04 -0.6 0.2 -0.88 l-0.12 -0.08 c0 -0.48 0.4 -0.72 0.4 -1.12 l-0.04 -0.04 c0.24 -0.28 0.24 -0.56 0.24 -0.84 l-0.04 0 c0.2 -0.16 0.08 -0.2 0.2 -0.36 l0 -0.12 c0.08 -0.12 0.2 -0.28 0.24 -0.44 l-0.04 -0.12 c0 -0.64 0.28 -0.32 0.32 -0.52 c0.28 -1.04 1.08 -1.88 1.28 -2.84 l-0.04 -0.08 c0.2 -0.08 0.28 -0.36 0.4 -0.48 l-0.04 -0.16 l0.08 -0.08 l0 0.04 c0.08 0 0.12 -0.08 0.12 -0.16 c0 -0.04 0 -0.08 -0.04 -0.12 l0.2 -0.24 l0 -0.08 c0 -0.08 0.12 -0.16 0.2 -0.2 l-0.04 -0.08 c0.2 -0.36 1.52 -2.6 1.8 -2.6 c0.08 0 0.28 0 0.32 0.08 l-0.08 0.12 l0.24 -0.12 l-0.04 0.4 l0.4 -0.2 l0.08 0.04 l-0.08 0.16 c0 0.16 0.08 0.32 0.2 0.48 c-0.24 0.84 -0.96 1.6 -1.08 1.96 c-0.16 0.64 -0.88 2.28 -1.24 2.8 l0 0.12 c0 0.32 -1.88 3.68 -1.88 5.24 l0 0.16 c0 0.36 0.04 1.16 0.24 1.16 c0.72 0 1.48 -0.84 1.72 -1.12 l0.12 -0.16 c0.2 -0.08 0.32 -0.52 0.56 -0.52 l-0.04 0.16 c0.16 0 1.04 -1.08 1.24 -1.28 l0.04 0.04 l-0.04 -0.04 c0 -0.12 0.12 -0.24 0.2 -0.28 l0.16 -0.24 l0.12 0.08 l0.04 -0.04 l0 -0.04 c1 -1.04 2.24 -3.8 2.8 -3.8 l0 0.04 c0.2 -0.32 0.36 -0.64 0.56 -0.92 c0 -0.12 1.16 -1.4 1.16 -1.48 c0.16 -0.2 1.2 -1.4 1.2 -1.68 l-0.08 -0.04 c-0.16 0.12 -0.32 0.28 -0.4 0.44 l-0.08 -0.04 c0.32 -0.4 0.52 -0.76 0.84 -0.96 l0.04 0.04 c0.44 0 0.88 -0.16 1.32 -0.16 l0.08 0.08 l0.12 -0.08 c0.32 0 0.52 0.16 0.76 0.32 l-0.04 0.04 c0.04 0.08 0.04 0.12 0.04 0.2 l0 0.16 c-0.04 0.44 -0.36 0.8 -0.52 1.2 c-0.92 1.92 -1.36 4 -2.08 5.96 l-0.28 0.8 s0.04 0.16 0.04 0.2 c0 0.24 -0.2 0.48 -0.2 0.72 c0 0 0 0.08 0.04 0.12 l-0.12 0.24 c0 0.04 0.04 0.12 0.04 0.12 c0 0.2 -0.12 0.64 -0.28 0.8 l0.08 0.08 c-0.24 0.44 -0.08 1.84 -0.44 2.04 c0 0.08 0.08 0.12 0.16 0.12 c0.4 0 0.88 -0.64 1.24 -0.84 c0.6 -0.4 1.72 -0.88 2.24 -1.36 c0 -0.32 1.16 -0.64 1.48 -0.64 c0.12 0 0.24 0 0.32 0.04 l0.12 -0.08 c0.12 0 0.32 0.16 0.32 0.32 c0 0.28 -1.88 1.04 -2.2 1.28 c-1.4 0.6 -3.04 1.96 -3.92 3.12 c0 0.08 0.04 0.12 0.04 0.2 c0 0.84 -0.48 1.64 -0.48 2.48 c0 0.64 -0.56 1.32 -0.56 1.72 c0 0.88 -1.8 2.8 -2.84 2.8 l-0.4 0 c-0.72 -0.16 -0.8 -0.2 -1.36 -0.64 c0.2 -0.08 0.8 -0.2 0.8 -0.44 c0 -0.12 -0.08 -0.12 -0.08 -0.24 l0.16 -0.04 c0 -0.12 0.08 -0.48 0.28 -0.48 c0 -0.08 -0.08 -0.12 -0.08 -0.2 c0 -0.12 0.2 -0.44 0.28 -0.56 l0.04 0.08 c0.2 -0.12 0.2 -0.2 0.2 -0.32 l0 -0.2 c0 -0.44 0.44 -0.56 0.44 -0.72 z M51.08 29.92 c0.08 -0.16 0.44 -0.68 0.44 -0.84 l-0.04 -0.04 c-0.12 0.24 -0.4 0.64 -0.4 0.88 z M58.68 35.08 l0.04 0.04 c0.12 0 0.2 -0.16 0.2 -0.24 l-0.2 -0.04 c0 0.08 -0.04 0.16 -0.04 0.24 z M56.839999999999996 44.24 l-0.04 -0.16 c-0.12 0.08 -0.08 0.2 -0.16 0.32 l0.04 0 c0.08 -0.04 0.12 -0.12 0.16 -0.16 z M59.92 26.8 l0.04 0 c-0.08 0.08 -0.16 0.24 -0.32 0.24 l-0.04 -0.08 c0.16 0 0.2 -0.16 0.32 -0.16 z M58.68 35.92 l-0.08 -0.08 l-0.12 0.24 c0.08 0 0.16 -0.08 0.2 -0.16 z M49.76 32.92 c-0.16 0 -0.2 0.28 -0.2 0.4 c0.12 -0.12 0.2 -0.24 0.2 -0.4 z M59.08 33.28 l0.04 0.08 c0.04 -0.12 0.16 -0.2 0.2 -0.28 l-0.16 -0.04 c0 0.08 -0.04 0.16 -0.08 0.24 z M50.16 31.84 l0.16 -0.16 c0 -0.08 -0.04 -0.08 -0.08 -0.08 l-0.04 0 c0 0.08 0 0.16 -0.04 0.24 z M50.8 30.52 c0 0 0 -0.04 -0.04 -0.04 c-0.08 0.12 -0.12 0.24 -0.12 0.36 c0.08 -0.04 0.08 -0.2 0.16 -0.32 z M59.28 31.439999999999998 c0.04 -0.08 0 -0.2 0.16 -0.28 c0 0.12 -0.04 0.24 -0.16 0.28 z M54.72 34.16 l-0.08 0.16 c0.08 0 0.16 -0.08 0.24 -0.16 l-0.16 0 z M58.72 35.6 l-0.04 -0.04 c-0.08 0 -0.12 0.04 -0.12 0.08 l0.08 0.12 c0.04 -0.04 0.08 -0.12 0.08 -0.16 z M58.4 37.24 c-0.04 0.08 -0.04 0.12 -0.12 0.2 l0.08 0.08 c0.04 -0.08 0.04 -0.16 0.04 -0.28 z M58.72 34.36 l0.04 0.12 l-0.08 0.04 l-0.04 -0.12 z M53.64 35.2 c0.04 -0.08 0.16 -0.2 0.24 -0.28 c-0.04 0.12 -0.16 0.16 -0.24 0.28 z M49.76 32.76 l0.16 -0.16 s-0.04 -0.04 -0.08 -0.04 z M51 30.240000000000002 c-0.04 0 -0.12 0.04 -0.2 0.08 l0.08 0.04 c0.08 0 0.12 -0.04 0.12 -0.12 z M58.28 35.519999999999996 l0 0.08 c0 0.08 0 0.16 -0.08 0.16 c0 -0.08 0.04 -0.16 0.08 -0.24 z M49.199999999999996 35.36 l0 -0.16 l-0.12 0 c0 0.08 0 0.12 0.12 0.16 z M56.4 44.84 l0 0.04 l0.08 -0.12 l-0.04 -0.04 c0 0.04 -0.04 0.08 -0.04 0.12 z M57.32 40.68 l0.08 -0.04 l-0.04 -0.08 l-0.08 0.08 z M50.36 31.439999999999998 c0.12 0 0.12 -0.12 0.12 -0.16 c-0.12 0 -0.12 0.08 -0.12 0.16 z M57.64 39.12 l-0.04 -0.04 c0 -0.08 0.04 -0.12 0.08 -0.2 c0 0.08 0 0.2 -0.04 0.24 z M49 34.44 l-0.12 0.16 l0 -0.04 z M57.599999999999994 40.6 c0 -0.04 0 -0.04 -0.04 -0.04 l-0.04 0.12 l0 0.04 c0.04 0 0.04 -0.08 0.08 -0.12 z M58.559999999999995 34.4 l0 0.04 c0 0.04 0 0.08 -0.04 0.08 l-0.04 0 c0.04 -0.04 0.08 -0.08 0.08 -0.12 z M57.959999999999994 37.28 l0 0.08 l-0.04 0 l-0.08 0 z M59.199999999999996 31.6 l0.08 -0.16 l0 0.08 l0 0.08 l-0.08 0 z M50.559999999999995 31.16 l-0.04 -0.08 l-0.04 0.04 s0.04 0.04 0.08 0.04 z M60.08 26.560000000000002 l0.12 0 c-0.04 0.04 -0.04 0.04 -0.12 0.08 l-0.04 0 z M53.44 35.4 c0.08 -0.04 0.08 -0.12 0.16 -0.16 c0 0.04 -0.08 0.12 -0.16 0.16 z M53.8 25.119999999999997 l0.08 -0.04 l0 -0.04 c-0.04 0 -0.08 0.04 -0.08 0.04 l0 0.04 z M58.959999999999994 33.64 l0.04 0.08 c-0.04 0 -0.08 -0.04 -0.08 -0.04 z M59.92 29.68 l0.04 -0.08 l-0.04 -0.04 l0 0.12 z M54 34.72 l0 0.08 l0 0 l0 -0.08 z M58.199999999999996 35.92 l0 -0.12 l0 0.12 l0 0 z M58.839999999999996 33.2 c0 0 0 -0.08 0.04 -0.12 c0 0.04 0 0.12 -0.04 0.12 z M57.519999999999996 40.88 l0.04 0 c-0.04 0 -0.04 0 -0.04 -0.04 l0 0.04 l0 0 z M59.04 32.68 c-0.08 0.04 -0.12 0.04 -0.12 0.12 l0.04 0.04 s-0.04 -0.04 -0.04 -0.08 s0.08 -0.04 0.12 -0.08 z M57.92 37.52 l-0.08 0 l0 -0.04 c0.12 0 0 0.04 0.08 0.04 z M59.16 33.44 l-0.04 -0.08 l0 0.12 z M59.44 30.92 l0.04 0 l-0.04 0.04 l0 0 l0 -0.04 z M59.8 30.119999999999997 l0 -0.04 l-0.04 0 c0 0.04 0 0.04 0.04 0.04 z M55.519999999999996 44.28 l0.08 -0.04 c-0.04 0 -0.04 0 -0.08 0.04 z M58.4 37.24 l0 -0.04 l0 0.04 z M57.199999999999996 40.84 l0.08 -0.04 l-0.04 -0.04 l-0.04 0.04 l0 0.04 z M58.199999999999996 37.88 l0.04 -0.04 l0 0 c-0.04 0 -0.04 0 -0.04 0.04 z M58.839999999999996 33.24 l-0.12 0.12 c0.04 -0.04 0.04 -0.08 0.12 -0.12 z M57.28 40.16 l0 0.04 l-0.04 0.04 c0 -0.04 0 -0.08 0.04 -0.08 z M58.92 32.84 l0 0.04 l0 -0.04 z M56.92 43.68 c0 0.04 0.04 0.04 0.04 0.04 c0 -0.04 0 -0.04 -0.04 -0.04 z M59.48 27.32 c0 -0.04 0 -0.04 0.04 -0.04 c0 0.04 0 0.04 -0.04 0.04 z M59.36 32.56 l-0.04 0.04 c0.04 0 0.04 0 0.04 -0.04 z M56.36 45.04 l-0.04 0 l0.04 0 z M50.08 32.12 l0.04 0 l0 -0.04 c-0.04 0 -0.04 0 -0.04 0.04 z M55.12 45.2 l0.04 0 s0.04 -0.04 0.04 -0.08 z M56.92 43.88 c-0.04 0 -0.04 0.04 -0.04 0.04 s0.04 0 0.04 -0.04 z M50.08 32.28 c0 -0.04 -0.04 -0.04 -0.12 -0.04 c0 0.04 0.08 0.04 0.12 0.04 z M63.12 36.2 l0 -0.04 l0 0.04 z M56.8 34.04 l0.04 0 c0 0.04 0 0.04 -0.04 0.04 l0 -0.04 z M57.72 38.4 l0.04 0 l0 0.04 c-0.04 0 -0.04 0 -0.04 -0.04 z M54.92 33.88 l-0.04 0.04 z M58.199999999999996 35.8 l0 -0.04 l0 0.04 z M55.199999999999996 44.6 l0.04 0.04 l-0.04 0 l0 -0.04 z M50.28 32.480000000000004 l0.04 -0.04 c-0.04 0 -0.04 0 -0.04 0.04 z M57.8 38.16 l0.04 0.04 l-0.04 0 l0 -0.04 z M57.599999999999994 39.56 l0 -0.04 l0 0.04 z M59.08 32.2 l0 -0.04 l0 0.04 l0 0 z M54.12 34.64 l0 -0.04 l0 0.04 z M49.919999999999995 32.480000000000004 l-0.04 0 l0.04 0 z M56.8 44.04 l0 0.04 l0 -0.04 z M59 33.6 c-0.04 0 -0.04 0 -0.04 0.04 c0 -0.04 0 -0.04 0.04 -0.08 l0 0.04 z M49.599999999999994 33.519999999999996 c-0.04 0 -0.04 0 -0.12 -0.04 c0.08 0.04 0.08 0.04 0.12 0.04 z M57.64 39.6 c-0.04 0 -0.04 0 -0.04 -0.04 c0 0.04 0 0.04 0.04 0.04 z M76 36.28 c-0.08 0.08 -0.12 0.16 -0.12 0.28 l0.12 0.08 c0 -0.08 0.08 -0.16 0.16 -0.16 c0.24 0 0.92 -0.84 1.12 -0.88 l0.08 0 c-0.08 0.16 -0.4 0.72 -0.4 0.88 l0 0.04 s0.04 0 0.04 0.04 l0.04 0.04 c-0.92 1.24 -2.08 2.4 -3.28 3.48 l-0.08 0 l-0.04 0 c-0.36 0.2 -0.84 0.32 -1.28 0.32 c-1.4 0 -2.4 -0.72 -2.48 -2.04 c0 -0.16 0 -0.36 -0.12 -0.48 l0.12 -0.16 l0.04 0.12 l0 0.08 l0 0 c0.04 0 0.08 -0.08 0.08 -0.12 c0 -0.08 -0.04 -0.12 -0.04 -0.16 l0.04 -0.08 c-0.08 -0.04 -0.2 -0.16 -0.2 -0.24 c0 -0.28 0.08 -0.6 0.16 -0.92 l0.08 0.12 c0.04 -0.12 0.04 -0.24 0.08 -0.36 l-0.04 -0.04 s-0.08 0.04 -0.12 0.04 s-0.04 -0.08 -0.04 -0.08 c0.12 -0.04 0.16 -0.12 0.16 -0.2 c0 -0.12 -0.04 -0.28 -0.04 -0.36 c0.04 -0.08 0.04 -0.24 0.2 -0.24 l0.2 0.08 c-0.2 0.24 -0.04 0.48 -0.2 0.72 l0.32 0.28 c0 -0.16 0.04 -0.32 0.04 -0.48 l0 -0.04 l-0.12 0.08 l-0.04 -0.08 c0.04 -0.24 0.16 -0.52 0.32 -0.72 c0 -0.12 -0.2 -0.08 -0.2 -0.24 c0 -0.4 0.2 -0.92 0.36 -1.32 l-0.12 -0.04 l-0.16 0.16 c-0.04 0 -0.04 -0.04 -0.04 -0.12 c0 -0.28 0.2 -0.52 0.2 -0.68 l0 -0.08 c0 -0.24 0.16 -0.52 0.24 -0.76 c0 -0.04 -0.04 -0.12 -0.04 -0.12 c0 -0.52 0.28 -1.12 0.48 -1.56 c0 -0.04 -0.04 -0.16 -0.08 -0.2 c0.16 -0.16 0.32 -0.36 0.32 -0.6 c0 -0.08 -0.08 -0.16 -0.08 -0.24 s0.04 -0.16 0.12 -0.2 l0.04 0.04 l-0.04 -0.04 c0 -0.28 0.08 -0.56 0.08 -0.84 l-0.16 -0.04 c-0.88 1.04 -1.72 2.12 -2.56 3.2 c-0.64 0 -3.56 7.72 -4.84 7.72 c-1.08 0 -1.12 -0.8 -1.28 -0.8 c-0.08 0.04 -0.08 0.04 -0.12 0.04 c-0.12 0 -0.2 -0.08 -0.2 -0.12 c0 -1 0.52 -1.92 0.56 -2.68 c0.08 -0.72 0.52 -1.44 0.52 -2.08 l0 -0.08 c0.12 -0.4 0.24 -0.64 0.24 -1.04 l0 -0.16 c0.44 -0.72 0.2 -1.28 0.48 -1.72 c0 -0.32 0.72 -2.56 0.92 -2.84 c0 -0.04 -0.04 -0.08 -0.04 -0.08 c0 -0.32 0.32 -0.6 0.68 -0.6 c0.16 0 0.44 0.2 0.6 0.32 l0.28 0.2 c0.12 0.28 0.24 0.56 0.24 0.88 c0 0.24 -0.12 0.4 -0.12 0.64 c0 0 0 0.08 0.04 0.16 c-0.28 0.4 -0.2 0.96 -0.4 1.4 c0 0.04 0.04 0.08 0.04 0.12 c0 0.36 -0.2 0.76 -0.36 1.08 c0 0.16 0.04 0.32 0.04 0.48 c-0.2 0.12 -0.24 0.36 -0.24 0.56 c0 0.12 0 0.2 0.04 0.36 c0.4 -0.2 1.56 -2.36 1.84 -2.48 l-0.04 -0.04 c0.2 -0.32 2.32 -3.12 2.36 -3.12 l-0.04 -0.04 c0.44 -0.4 0.88 -0.88 1.2 -1.36 c0.32 -0.36 0.44 -1 1.04 -1 c0.28 0 0.72 0.04 1 0.24 c0.04 -0.04 0.2 -0.16 0.32 -0.16 c0.44 0 0.52 0.28 0.52 0.6 c0 0.4 -0.08 0.76 -0.16 1.12 l-0.12 0.4 l0 0.16 c-0.16 0.16 -0.4 1.16 -0.48 1.4 l-0.08 0.6 l0 0.04 c0 1.28 -1.56 4.28 -1.56 5.92 c0 0.28 -0.16 0.48 -0.16 0.72 c0 0.04 0 0.12 0.04 0.2 c-0.04 0.12 -0.08 0.16 -0.08 0.28 s0.04 0.28 0.04 0.56 c0 0.72 0 1.88 0.36 1.88 c0.4 0 1.96 -1.52 2.28 -1.52 l0.04 0 c0.44 0 1.2 -1.24 1.48 -1.32 z M63.03999999999999 37.6 c0 0.08 0.04 0.12 0.04 0.2 c0.56 -0.28 0.72 -1.92 0.76 -2.48 c0.04 -0.44 0.8 -3.52 0.96 -4 l0 -0.04 c-0.56 0.84 -0.36 1.12 -0.56 1.76 c-0.16 0.32 -0.48 2.08 -0.68 2.16 c-0.24 0.6 -0.52 1.72 -0.52 2.4 z M71.47999999999999 29.2 c0 0.4 -1 3.32 -1.28 3.56 c0 -0.92 1.12 -3.56 1.2 -3.56 l0.08 0 z M70.52 34.08 c0 0.08 0.04 0.12 0.04 0.2 c0 0.16 -0.08 0.68 -0.32 0.68 c-0.12 0 -0.08 -0.28 -0.12 -0.36 c0.08 -0.2 0.2 -0.4 0.4 -0.52 z M71.32 32.04 l0 -0.12 c0.16 -0.16 0.24 -0.6 0.24 -0.84 c-0.24 0.28 -0.32 0.76 -0.32 1.16 z M70.16 37.16 l0 0.04 l0 0.12 l0.04 0.04 c0.12 0 0.12 -0.36 0.12 -0.44 l0 -0.24 c-0.16 0.12 -0.16 0.32 -0.16 0.48 z M75.75999999999999 36.72 l-0.04 0 c0 0.04 -0.2 0.16 -0.2 0.24 l0.12 0.08 c0.08 -0.12 0.08 -0.2 0.12 -0.32 z M64.96 30.68 l0 -0.04 c-0.12 0.04 -0.16 0.28 -0.16 0.36 c0.12 -0.08 0.16 -0.16 0.16 -0.32 z M70.83999999999999 35.32 l0.08 0.12 c0.04 -0.08 0.04 -0.16 0.04 -0.24 l-0.08 -0.04 c0 0.08 0 0.12 -0.04 0.16 z M71 33.04 l-0.04 -0.04 l-0.08 0.12 l0.08 0.08 z M70.52 34.08 c0 -0.08 0.04 -0.16 0.08 -0.24 l0.04 0.04 c-0.04 0.08 -0.04 0.12 -0.12 0.2 z M64.19999999999999 35.96 l-0.08 -0.04 c0 0.04 -0.04 0.08 -0.04 0.12 z M71.47999999999999 30.28 l0.04 -0.04 c0 -0.04 0 -0.04 -0.04 -0.08 l0 0.12 z M70.55999999999999 36.52 l-0.04 0.08 z M70.16 38.28 l0 0.04 l0.04 0 z M71.67999999999999 30.8 l-0.04 0 l0 0.04 c0 -0.04 0 -0.04 0.04 -0.04 z M67.67999999999999 32.08 l0.04 0 l0.04 0 l-0.08 0 z M102.80000000000001 29.48 c0 0.28 0.04 0.52 0.04 0.8 c0 0.36 -0.16 0.76 -0.32 1.12 l0 -0.04 c-0.16 0 -0.76 2.96 -2.44 4.04 c-0.24 0.04 -0.88 1.32 -1.4 1.56 c-0.04 -0.04 -0.12 -0.04 -0.12 -0.04 c-0.12 0 -0.12 0.16 -0.16 0.24 c-0.36 0.88 -3.28 2.92 -4.12 3.64 c-0.96 0.76 -1.76 1.6 -3 2 c-1.52 0.8 -5.04 3.36 -8.2 3.36 c-2.16 0 -3.56 -2.4 -3.56 -4.12 c0 -1 0.44 -2.12 1.08 -3 c0 -0.24 0.36 -0.44 0.56 -0.76 c0.16 -0.48 1.72 -2.32 2.2 -2.52 c0.44 -0.16 0.84 -0.76 1.12 -1.12 c0.08 -0.16 2.08 -1.44 2.4 -1.84 c0.48 -0.68 2.24 -1.12 3 -1.88 c0.28 -0.32 0.88 -0.16 0.96 -0.56 c0.36 0.08 0.2 0.28 0.4 0.28 c0 0 0.68 -0.88 1.12 -0.88 c0.72 0 1.56 -0.56 1.64 -0.56 s0.16 0.08 0.16 0.16 c-0.16 0.12 -0.24 0.24 -0.36 0.4 c-0.48 0.44 -1.2 0.48 -1.68 0.88 c-0.92 0.72 -5.52 2.48 -5.52 3.48 c0 0.2 0.2 0.44 0.2 0.6 c0 0.2 -0.56 0.28 -0.72 0.28 c-0.04 -0.04 -0.16 -0.16 -0.32 -0.16 c-0.4 0 -1.28 1 -1.28 1.32 c0 0.16 0.32 0.32 0.32 0.48 s-0.2 0.28 -0.36 0.32 l-0.12 -0.04 c-0.12 -0.16 -0.12 -0.36 -0.32 -0.52 c-0.12 0.08 -0.12 0.24 -0.12 0.4 c0 0.08 0.04 0.16 0.08 0.24 l-0.04 0.24 c-0.24 0 -0.16 -0.08 -0.36 -0.16 c-0.12 0.12 -0.64 0.88 -0.64 1 c0 0.68 -0.52 0.76 -0.52 1.32 c0 0.52 -1.16 2.52 -1.76 2.52 c0.08 0.16 0.36 0.2 0.36 0.36 c0 0.28 -0.16 0.52 -0.16 0.8 c0 0.36 0.48 1.2 0.96 1.2 c2.36 0 4 -1.44 5.72 -1.84 c0 0.16 -0.08 0.28 -0.16 0.4 c0.44 -0.12 0.32 -0.24 0.56 -0.48 l-0.04 -0.2 l0.24 -0.04 l0.24 0.12 c0.16 -0.12 1.12 -0.64 1.12 -0.76 c0 -0.04 -0.04 -0.08 -0.04 -0.16 l0.16 -0.04 c0.36 0 0.84 -0.76 1.28 -0.92 c0.64 -0.28 2.24 -1.88 2.6 -1.92 c0.92 -0.16 1.48 -1.24 1.8 -1.24 c-0.36 1.4 -7.28 5.44 -7.28 5.76 l0.16 0.28 c-0.04 0.12 -0.16 0.28 -0.16 0.4 c0 0.08 0.08 0.12 0.08 0.2 l-0.08 0.04 c-0.08 -0.08 -0.16 -0.16 -0.32 -0.16 c-0.2 0 -0.4 0.16 -0.6 0.16 l-0.68 0.4 c-0.24 0.08 -1.24 0.64 -1.28 0.84 l0.12 0.04 c0.6 -0.16 1.04 -0.56 1.68 -0.68 c1.96 -0.44 3.2 -1.72 4.92 -2.56 c1.6 -0.8 3.04 -2.52 4.72 -3.6 c0 -0.12 -0.04 -0.2 -0.24 -0.2 c-0.44 0.32 -1.8 1.92 -2.32 1.92 c-0.08 0 -0.16 -0.16 -0.28 -0.2 l-0.4 0.24 l-0.2 -0.24 c0.16 -0.32 1.28 -1.08 1.64 -1.32 c1.04 -0.8 1.8 -1.52 2.48 -2.6 l0.12 -0.12 c1.28 -1.36 3 -2.92 3.2 -4.8 c0.08 -0.88 0.76 -1.68 0.76 -2.64 c0 -0.48 -1.68 -0.96 -2.12 -0.96 c-0.24 0 -0.4 0.12 -0.64 0.12 c-0.52 0 -1.12 -0.12 -1.68 -0.12 c-0.28 0 -0.56 0.16 -0.8 0.16 c-0.16 0 -0.28 -0.12 -0.4 -0.12 c-0.28 0 -0.44 0.2 -0.72 0.2 c-0.12 0 -0.24 -0.04 -0.36 -0.08 c-0.08 0 -2.72 0.44 -3.16 0.48 c-0.96 0.16 -2.12 0.32 -3.08 0.32 c-3.2 0 -5.52 -1.68 -5.52 -4.76 c0 -1.16 1.28 -2.08 1.28 -2.28 c0 -1.32 9.12 -9.72 11.32 -9.72 c1.64 0 4.28 2.2 4.28 4.12 c0 0.8 -0.04 2.2 -1.32 2.2 c-0.72 0 -2.04 -0.72 -2.04 -1.44 c0 -0.12 0.64 -0.96 0.64 -1.64 c0 -0.28 0 -1.24 -0.48 -1.24 c-1.24 0 -2.16 1.04 -3.04 1.68 c-0.8 0.6 -1.6 1.08 -2.28 1.72 c-0.64 0.6 -2 1.48 -2.76 2.48 c-1 1.36 -4.04 3.36 -4.04 5.76 c0 1.28 1.32 1.32 2.4 1.4 c0.24 0.04 0.6 0.16 0.88 0.16 c0.16 0 0.2 -0.12 0.4 -0.16 c0.12 0.04 0.24 0.08 0.44 0.08 c0.92 0 2.52 -0.6 3.36 -0.6 c1.6 0 3.08 -0.28 4.68 -0.28 c0.96 0 1.88 0.04 2.8 0.24 c0.44 0.08 2.56 1.16 2.56 1.64 c0 0.08 -0.16 0 -0.16 0.16 c0.2 0.28 0.44 0.56 0.6 0.84 l0.08 -0.08 c0.28 0.2 0.36 0.48 0.36 0.8 z M99.88 34.44 c0.56 -0.72 1.8 -2.28 1.8 -3.12 c0 -0.04 0 -0.12 0.08 -0.16 l-0.08 -0.12 c-0.16 0.16 -0.28 0.36 -0.44 0.56 c0.16 -0.32 0.28 -0.64 0.28 -0.96 c0 -0.16 -0.04 -0.4 -0.16 -0.52 c-0.16 0.12 -0.24 0.28 -0.24 0.52 c0 0.8 -1.16 2.24 -1.16 2.68 c0 0.2 0.32 0.16 0.32 0.24 c0 0.32 -0.4 0.48 -0.4 0.88 z M92.68 40.08 c0.08 -0.08 0.28 -0.2 0.44 -0.2 c0 0.88 -1.28 0.72 -1.28 1.48 l0 0.12 c0 0.2 -0.04 0.36 -0.28 0.36 c-0.08 -0.04 -0.2 -0.08 -0.28 -0.08 c-0.6 0 -1.2 0.6 -1.36 1.04 l-0.28 -0.08 c-0.32 0.08 -0.92 0.28 -1.2 0.44 l-0.08 0 c-0.04 0 -0.08 0 -0.08 -0.04 c0.44 -0.68 3.96 -2.04 4.4 -3.04 z M99.72 34.76 l-0.08 -0.12 c-0.56 0.56 -2.68 2.72 -3 3.32 l0.08 0.12 c0.88 0 1.32 -1.76 1.96 -1.88 c0.28 -0.52 0.56 -0.72 1.04 -1.44 z M95.84 26.92 l0.08 -0.04 c0 -0.04 0.08 -0.08 0.08 -0.16 s0 -0.36 -0.16 -0.36 c-0.08 0.04 -0.4 0.16 -0.44 0.16 c0 0 -0.68 -0.16 -0.72 -0.16 c-0.24 0 -0.36 0.16 -0.4 0.36 c-0.16 -0.08 -0.36 -0.24 -0.56 -0.24 c-0.08 0.08 -0.24 0.12 -0.4 0.12 c-0.04 0 -0.12 -0.04 -0.2 -0.04 l-0.16 0.08 c0.12 0.16 0.44 0.16 0.6 0.16 s0.28 0 0.44 -0.04 c0.12 0 0.24 0.36 0.48 0.36 c0.2 0 0.4 -0.12 0.64 -0.16 c0.12 0.04 0.24 0.2 0.36 0.2 c0.2 0 0.16 -0.24 0.36 -0.24 z M87.48 43.28 c-0.52 0 -1.76 0.68 -2.12 1 c0.56 0 1.96 -0.52 2.12 -1 z M98.12 26.8 c0.2 -0.04 0.28 -0.08 0.36 -0.24 c-0.08 -0.24 -0.6 -0.24 -0.96 -0.24 s-0.36 0.12 -0.44 0.32 c0 0.12 0.04 0.16 0.12 0.16 c0.2 0 0.4 -0.16 0.64 -0.16 c0.12 0 0.2 0.16 0.28 0.16 z M97.56 35.12 c-0.4 0.44 -0.92 1.32 -1.64 1.32 l-0.04 0 c0.24 -0.04 1.44 -1.16 1.64 -1.36 z M96.68 26.84 c0.12 0 0.32 -0.16 0.32 -0.24 c0 -0.16 -0.12 -0.28 -0.32 -0.28 c-0.12 0 -0.2 0.04 -0.2 0.16 c0 0.16 0.04 0.36 0.2 0.36 z M92.60000000000001 26.8 l-0.28 -0.16 c-0.2 0 -0.36 0.16 -0.48 0.28 c0.04 0.08 0.24 0.16 0.4 0.16 c0.12 -0.12 0.28 -0.16 0.36 -0.28 z M84.64 44.44 l-0.08 0.08 c0.04 0.04 0.08 0.08 0.08 0.16 c0.2 -0.16 0.56 -0.12 0.72 -0.4 c-0.28 0 -0.52 0.08 -0.72 0.16 z M97.04 37 l0 0.08 c0.32 -0.08 0.4 -0.36 0.56 -0.56 c0 -0.12 0 -0.12 -0.08 -0.16 c-0.16 0 -0.36 0.52 -0.48 0.64 z M84.84 45.32 l0 -0.08 c0 -0.08 0 -0.24 -0.16 -0.24 c-0.04 0 -0.2 0.04 -0.24 0.08 c0.04 0.12 0.2 0.24 0.28 0.28 z M100.44 33.2 c0 -0.2 0.6 -1.12 0.68 -1.32 c-0.2 0.44 -0.44 0.88 -0.68 1.32 z M91 27.28 l0.24 -0.16 l-0.12 -0.16 c-0.12 0 -0.28 0 -0.28 0.12 c0.08 0.04 0.16 0.12 0.16 0.2 z M98.68 35.16 l0.04 0.08 c0.16 -0.16 0.28 -0.12 0.28 -0.4 l-0.08 -0.08 c-0.08 0.12 -0.12 0.28 -0.24 0.4 z M85.68 35.36 c-0.04 0 -0.12 -0.04 -0.12 -0.08 c0 -0.08 0.08 -0.16 0.16 -0.24 c0.04 0.08 0.12 0.08 0.2 0.12 c-0.12 0.08 -0.2 0.12 -0.24 0.2 z M86.68 33.519999999999996 c0 0 -0.04 -0.08 -0.04 -0.12 c-0.08 0 -0.24 0.24 -0.36 0.28 c0.12 -0.04 0.4 -0.08 0.4 -0.16 z M99.24000000000001 32.8 l0.08 0.16 c-0.04 0.08 -0.12 0.08 -0.2 0.16 l0 -0.08 c0 -0.08 0.04 -0.16 0.12 -0.24 z M85.56 20.24 c-0.16 0 -0.08 0.16 -0.16 0.24 c0.16 -0.04 0.2 -0.08 0.2 -0.2 z M83.56 45.519999999999996 l0.12 -0.04 c-0.08 -0.08 -0.12 -0.16 -0.2 -0.24 l-0.04 0.08 c0 0.04 0.04 0.12 0.12 0.2 z M85.80000000000001 34.12 l-0.24 0.2 l0 0 c0.08 0 0.36 -0.08 0.36 -0.16 z M87.12 34 c0 0.04 0 0.24 -0.08 0.24 c-0.04 0 -0.04 0 -0.08 -0.04 c0 -0.2 0.08 -0.12 0.16 -0.2 z M85.28 20.56 c-0.08 0 -0.24 0.04 -0.24 0.16 l0 0 c0.12 0 0.2 -0.08 0.24 -0.16 z M96.28 37.84 l0.04 -0.16 l-0.04 -0.08 c-0.08 0.08 -0.08 0.12 -0.12 0.2 z M99.84 32.24 l-0.12 0.16 l-0.04 -0.04 l0.08 -0.2 z M86.80000000000001 43.08 l0 0.04 c0.08 0 0.24 -0.04 0.32 -0.12 l-0.08 0 c-0.08 0 -0.16 0.04 -0.24 0.08 z M98.12 34.44 l-0.08 0.08 l0 -0.12 c0 -0.04 0.04 -0.08 0.08 -0.12 l0 0.16 z M86.24000000000001 34.32 l-0.04 0.12 l0.08 0.08 l0.16 0 z M84.24000000000001 44.32 c0.04 0 0.12 -0.04 0.16 -0.08 l-0.04 -0.04 l-0.16 0.04 z M98.4 35.44 c-0.04 0 -0.08 0.08 -0.12 0.16 l0.04 0.04 c0.04 -0.04 0.08 -0.04 0.08 -0.12 l0 -0.08 z M98 35.8 l-0.04 0.12 l0.08 0.04 l0 -0.04 z M89.04 43.28 c0 0.04 -0.04 0.08 -0.08 0.12 c-0.08 -0.04 -0.08 -0.08 -0.08 -0.12 l0.16 0 z M83.88000000000001 44.84 l0.08 -0.04 l0 -0.08 l-0.12 0.04 z M83 45.64 l0.04 -0.08 c-0.04 -0.04 -0.12 -0.04 -0.12 -0.04 z M95.76 38.16 c0.04 -0.08 0.04 -0.08 0.12 -0.08 l-0.08 -0.08 l-0.04 0.08 l0 0.08 z M96.64 37.24 l0 0.04 c0.04 -0.04 0.04 -0.04 0.08 -0.04 c0 -0.04 0 -0.04 -0.04 -0.04 z M84.88000000000001 43.96 c-0.04 0 -0.04 0.04 -0.04 0.08 l0.08 0 c0 -0.04 0 -0.08 -0.04 -0.08 z M80.24000000000001 41.04 l0.04 -0.04 c-0.04 -0.04 -0.08 -0.04 -0.16 -0.04 l-0.04 0.04 c0.04 0.04 0.12 0.04 0.16 0.04 z M86.2 43.52 c0 -0.04 -0.04 -0.08 -0.08 -0.08 l-0.04 0 c0.04 0 0.12 0.04 0.12 0.08 z M96.28 26.560000000000002 l0 -0.08 l0 -0.04 c0 0.04 0 0.04 -0.04 0.08 z M90.52000000000001 31.04 l-0.04 0.08 l0.12 0 c0 -0.04 -0.08 0 -0.08 -0.08 z M101.64 30 c0 0.04 0 0.08 0.04 0.12 c0 -0.04 -0.04 -0.08 -0.04 -0.12 z M100.12 31.6 l0.04 0 l-0.08 0 l0.04 0 z M84.2 44.72 c0 -0.04 0 -0.04 0.04 -0.04 l0 -0.04 c-0.04 0.04 -0.04 0.04 -0.04 0.08 z M101.12 31.880000000000003 l0.12 -0.28 c-0.04 0.08 -0.08 0.16 -0.12 0.28 z M83.36 44.480000000000004 c0.04 0 0.04 0 0.04 -0.04 c-0.04 0 -0.04 0 -0.04 0.04 z M94.16 39.64 l-0.04 0 c0.04 0 0.04 0 0.04 0.04 l0 -0.04 z M112.8 32.8 l0.08 0.08 c-0.4 0.6 -1.04 1.2 -1.04 1.92 c0 0.8 -1.12 2.44 -1.68 3.08 l0.04 0.12 c-0.6 0.92 -1.96 3.44 -3.36 3.44 c-0.76 0 -0.96 -0.56 -1.44 -0.72 c-0.96 -0.32 -0.96 -3.52 -0.96 -4.36 c0 -0.56 0.04 -1.12 0.24 -1.68 c0 -0.2 0.24 -0.8 0.24 -0.88 c0 -0.04 -0.04 -0.12 -0.08 -0.12 c0 -0.52 0.16 -1 0.24 -1.6 l0 -0.04 l0.16 -0.44 c0.12 -0.32 0.16 -0.64 0.16 -0.96 c0 -0.6 0.32 -1.28 0.48 -1.88 c0.28 -1 0.44 -2.12 1 -3.08 c0 -0.24 -1 -0.24 -1.16 -0.24 s-0.52 0.04 -0.84 0.04 c-0.52 0 -1 -0.12 -1 -0.6 c0 -0.16 0.44 -0.16 0.52 -0.16 l0.8 0 c0.96 0 2.28 -0.08 2.36 -0.76 c0.08 -0.72 0.76 -1.48 0.84 -2.4 c0.12 -0.88 0.76 -1.72 0.96 -2.6 c0.08 -0.4 0.6 -1.04 0.6 -1.28 c0 -0.32 0.12 -0.88 0.48 -0.88 c0.84 0 1.8 1.12 1.8 1.84 c0 0.32 -0.4 0.48 -0.4 0.96 c-0.68 1.36 -1 2.92 -1.72 4.16 l0.16 0.16 c0.4 0 0.72 0 1.12 0.08 c0 0.24 -1.12 0.48 -1.28 0.56 c-0.44 0.2 -1.12 2.08 -1.12 2.56 c0 0 0.08 0.04 0.08 0.08 c-0.4 0.36 -1.6 4.56 -1.72 5.24 c-0.08 0.48 -0.04 2.12 -0.4 2.48 c0 1.36 -0.24 2.76 -0.24 4.12 l0 0.12 c0 0.12 0 0.16 0.2 0.28 l-0.04 0 c0 0.04 1.48 -0.96 3.04 -3.32 c0.04 -0.04 0.44 -0.76 0.88 -0.76 l0.12 0 c0.08 0 0.12 -0.04 0.12 -0.24 c-0.08 0 -0.2 0 -0.24 0.12 l-0.08 -0.04 c0 -0.6 1.32 -0.88 1.32 -1.68 c0 -0.16 0 -0.16 0.08 -0.16 l0.04 0 c0.04 0 0.08 0 0.16 -0.16 l-0.08 0 c0.2 -0.12 0.24 -0.4 0.56 -0.4 z M106.16 36.04 l0.04 -0.16 l-0.08 -0.12 l-0.24 0.16 c-0.16 0 -0.16 -0.44 -0.16 -0.52 c0 -0.28 0.08 -0.36 0.16 -0.6 c-0.04 -0.08 -0.08 -0.16 -0.08 -0.2 c0 -0.24 0.24 -0.24 0.24 -0.52 c0 -0.12 -0.04 -0.24 -0.16 -0.36 c-0.12 0 -0.52 1.76 -0.52 2.32 c0.04 0.04 0.12 0.2 0.2 0.28 c-0.08 0.08 -0.24 0.4 -0.24 0.4 c0 0.4 0.04 0.76 0.04 1.12 c-0.12 0.16 -0.12 0.44 -0.12 0.6 l0 0.08 c0.08 0.12 0.12 0.8 0.32 0.8 c0 -0.04 0.04 -0.2 0.08 -0.2 c0.08 0.16 0.12 0.32 0.24 0.48 c0.16 0 0.2 0 0.2 -0.16 c-0.08 -0.04 -0.2 -0.12 -0.2 -0.2 c0.12 -0.04 0.24 -0.16 0.24 -0.28 c0 -0.28 -0.2 -0.52 -0.2 -0.8 c0 -0.32 0.16 -0.68 0.16 -1.04 c0 -0.2 -0.04 -0.44 -0.04 -0.64 c0 -0.16 0.04 -0.32 0.12 -0.44 z M106.64 30.92 c0.08 -0.08 0.28 -0.64 0.28 -0.76 c0 -0.48 0.36 -0.64 0.36 -0.72 c-0.12 -0.12 -0.16 -0.24 -0.16 -0.4 c0.08 -0.04 0.08 -0.12 0.08 -0.16 c0 -0.08 0 -0.16 -0.04 -0.16 c-0.32 0 -0.28 1 -0.48 1.28 c0 0.08 0.04 0.16 0.04 0.28 c0 0.2 -0.52 0.88 -0.52 1 c0 0.08 0.04 0.12 0.04 0.16 c-0.32 0.16 -0.36 1.28 -0.36 1.48 c0 0.08 0.04 0.16 0.04 0.24 l-0.16 0.2 c0.04 0.12 0.12 0.2 0.24 0.2 c0 0 0.6 -1.36 0.6 -1.88 l-0.04 -0.08 l0.16 -0.44 c-0.04 -0.04 -0.08 -0.16 -0.08 -0.24 z M105.8 37.8 c-0.04 0.04 -0.04 0.12 -0.04 0.2 c0 0.12 0.04 0.24 0.04 0.36 s-0.04 0.2 -0.12 0.2 c0 0 -0.12 0 -0.12 -0.04 c0 -0.4 0.12 -0.8 0.12 -1.2 l0.12 0.16 l0 0.32 z M107.92 26.64 c-0.16 0 -0.28 0.24 -0.32 0.32 l0.12 0.24 l0.48 -0.4 c0 -0.12 -0.2 -0.16 -0.28 -0.16 z M113.36 31.92 c0.2 -0.16 0.36 -0.44 0.6 -0.6 l0.04 0.12 c-0.08 0.16 -0.32 0.64 -0.52 0.64 c-0.08 0 -0.08 0 -0.08 -0.04 s0 -0.08 -0.04 -0.12 z M105.92 31.08 c-0.04 0.04 -0.12 0.16 -0.2 0.24 l0 0.16 c0 0.08 0 0.24 0.12 0.24 c0.08 -0.12 0.16 -0.44 0.16 -0.6 z M108.92 38.44 c-0.04 -0.12 -0.04 -0.2 -0.12 -0.28 c-0.08 0 -0.12 0.08 -0.12 0.16 l0.04 0.16 z M108.04 25.880000000000003 l-0.08 0.12 c0 0.08 0.04 0.12 0.08 0.16 l0.16 -0.08 l-0.08 -0.24 z M105.8 36.32 c-0.08 -0.08 -0.08 -0.12 -0.16 -0.2 l0.08 -0.04 l0.16 0.08 l0 0.08 c0 0.04 0 0.08 -0.04 0.08 l-0.04 0 z M106.68 28.439999999999998 c-0.08 0 -0.08 0.16 -0.08 0.24 l0 0.04 l0.16 -0.16 s0 -0.12 -0.08 -0.12 z M106.32000000000001 33.84 c0.08 0 0.12 0.04 0.12 0.04 l0.08 -0.08 l-0.04 -0.08 c-0.08 0 -0.16 0 -0.16 0.12 z M106.08 35.64 l0.08 -0.04 l-0.08 -0.16 l-0.08 0.16 z M107.48 27.560000000000002 l0.08 -0.2 l-0.12 0.16 z M106.72 32.56 l-0.04 -0.08 l-0.08 0.08 l0 0.08 c0.04 -0.04 0.08 -0.08 0.12 -0.08 z M107.48 27.759999999999998 l-0.08 0.12 l0.04 0.08 l0.04 -0.04 l0 -0.16 z M105.56 39.76 l0.12 -0.08 l-0.12 -0.04 l-0.08 0.08 z M114.36 30.92 l0.08 0.04 c0 0.04 -0.04 0.08 -0.08 0.08 l-0.08 -0.08 z M107.52 25.96 l0 0.04 l0.12 0 c0 -0.08 0 -0.12 -0.08 -0.12 z M105.24 33.2 l0.08 -0.04 l-0.12 -0.08 l0 0.04 z M106.16 35.12 c0 0 0 0.04 0.04 0.04 l0.04 0 c0 -0.04 0 -0.08 -0.04 -0.12 z M107.04 31.16 l0.04 -0.04 c0 -0.04 -0.04 -0.04 -0.08 -0.08 c0 0.08 0 0.08 0.04 0.12 z M110.6 36.56 l0.04 -0.04 l-0.12 0 z M114.08 31.28 c-0.04 0 -0.08 0.04 -0.12 0.04 c0.04 -0.04 0.08 -0.04 0.12 -0.04 z M106.4 34.24 l0.04 -0.04 c0 -0.04 0 -0.04 -0.04 -0.04 l0 0.08 z M107.96000000000001 26.439999999999998 c-0.04 0 -0.04 0.04 -0.08 0.04 l0.04 0 s0.04 0 0.04 -0.04 z M111.28 34.480000000000004 l-0.04 0 l0.04 0 l0 0 z M112.32 37.12 l-0.08 -0.28 c0.28 -0.52 0.28 -1.12 0.48 -1.68 c0.36 -0.24 0.32 -0.8 0.44 -1.16 c0.24 -0.48 0.72 -0.96 0.88 -1.44 l0 0.08 l0.2 -0.28 c0 -0.44 0.6 -0.72 0.6 -0.88 c0 -0.36 -1.08 -1.4 -1.24 -1.8 c-0.16 -0.44 -0.28 -0.96 -0.48 -1.4 c0 -0.04 0.04 -0.04 0.04 -0.08 c0 -0.24 -0.12 -0.44 -0.12 -0.68 c0 -0.64 0.64 -1.2 1.48 -1.2 c0.24 0 0.48 0.08 0.72 0.12 c0.04 0 0.08 -0.04 0.16 -0.04 c1.48 0 2.24 1.44 2.64 1.44 c0.48 0 0.92 -0.08 1.48 -0.08 c0.32 0 1 0.16 1 0.56 c0 1.2 -1.4 1.36 -1.4 1.68 c0.04 0.12 0.04 0.2 0.04 0.32 l0 0.16 c0.6 0.4 0.88 1.24 0.88 1.88 l0 0.2 l0.16 -0.16 c0.28 0 0.28 1.04 0.28 1.24 l0 0.08 c-0.56 2.84 -2.52 5.88 -5.12 5.88 c-0.64 0 -1.68 0 -2.12 -0.48 c-0.44 -0.44 -0.96 -1 -0.96 -1.64 c0 -0.12 0 -0.24 0.04 -0.36 z M118.52 32.72 l-0.08 -0.12 l-0.04 0.04 c-0.12 -0.44 -0.32 -0.88 -0.48 -1.32 l-0.28 -0.64 l-0.08 -0.08 l0.04 -0.04 c-0.16 0 -1.12 1.92 -1.44 2.2 l-0.08 -0.2 l-0.28 0.48 s-0.04 0.2 -0.08 0.2 l0 -0.04 l-0.08 0.12 l0.04 0.04 c0 0.12 -0.24 0.16 -0.32 0.28 c0 0.04 0.04 0.12 0.04 0.2 c0 0.48 -0.52 1.48 -0.84 1.96 l-0.28 0.6 c0 0.16 0.08 0.32 0.08 0.48 c0 0.36 -0.32 0.48 -0.32 0.56 l0.2 0.2 c0 0.12 -0.08 0.28 -0.16 0.36 c0 0.32 0.04 0.64 0.48 0.64 c0.24 0 1.64 -0.8 1.84 -0.96 c1.12 -1.08 2.04 -2.6 2.04 -4.08 c0 -0.24 0.28 -0.52 0.28 -0.76 c0 -0.12 -0.04 -0.24 -0.04 -0.32 c-0.04 0.04 -0.08 0.16 -0.16 0.2 z M114.96 27.119999999999997 c-0.56 0 -0.84 1.28 -0.84 1.64 c0 0.8 0.4 1.88 0.84 2.32 c0.64 -0.32 0.84 -1.6 1.12 -1.6 c0.12 -0.08 0.48 -0.64 0.48 -0.8 c0 -0.64 -1.32 -1.56 -1.6 -1.56 z M117.63999999999999 36.44 l0.04 0.04 l-0.12 0.08 l0.08 0.04 c0.6 0 0.72 -0.68 0.8 -0.68 l0 0.04 c0 -0.2 0.72 -0.84 0.8 -1.48 c0.04 -0.32 0.04 -0.68 0.28 -0.96 l-0.12 -0.04 c0 0.2 -0.44 0.56 -0.56 0.72 c-0.44 0.52 -0.6 1.56 -1.2 2.24 z M112.72 36.44 l0 0.24 l0.04 0.04 c0.44 -1.16 0.92 -2.8 1.64 -3.8 c-1 1.4 -1.2 2.84 -1.68 3.52 z M113.96 34.64 l0.04 0 c-0.36 0 -0.44 0.88 -0.64 1.12 l0.04 0.04 c0.2 -0.36 0.4 -0.76 0.56 -1.16 z M118.03999999999999 30.8 l0 0.08 c0 0.08 0 0.24 0.08 0.24 c0 -0.8 -0.24 -0.64 -0.28 -0.76 l-0.04 0.04 c0.04 0.16 0.12 0.32 0.24 0.4 z M118.39999999999999 31.759999999999998 c0 0 -0.04 0.08 -0.04 0.12 c0 0.16 0.08 0.28 0.12 0.44 c-0.04 0.04 -0.04 0.04 -0.04 0.08 l0.04 0 l0.16 -0.04 c-0.16 -0.36 -0.16 -0.68 -0.36 -0.92 c0 0.12 0 0.2 0.12 0.32 z M113.36 36.28 l-0.04 -0.16 c-0.16 0.12 -0.24 0.44 -0.24 0.6 l0.04 0.08 c0.04 -0.16 0.12 -0.36 0.24 -0.52 z M114.27999999999999 33.68 l0.04 0.08 c0.12 0 0.36 -0.56 0.4 -0.68 c-0.12 0.12 -0.44 0.56 -0.44 0.6 z M118.88 29.439999999999998 l0.08 -0.12 l-0.04 -0.16 c-0.08 0 -0.12 0.04 -0.12 0.12 s0 0.16 0.04 0.16 l0.04 0 z M115.19999999999999 31.84 l-0.04 -0.04 c-0.16 0.28 -0.28 0.52 -0.44 0.76 c0.28 -0.28 0.28 -0.4 0.48 -0.72 z M114.16 34.08 l0.08 -0.08 l0 -0.08 c0 0.2 -0.2 0.32 -0.28 0.48 c0.12 0 0.16 -0.24 0.2 -0.32 z M113.08 36.96 l-0.08 0.08 l0.04 0.16 c0.04 -0.08 0.04 -0.16 0.04 -0.24 z M115.88 30.8 l0.08 -0.08 l-0.08 -0.12 l0 0.2 z M115.39999999999999 31.52 l0 0.08 c0.04 -0.04 0.04 -0.12 0.12 -0.16 l-0.08 0 s-0.04 0.04 -0.04 0.08 z M115.16 32.480000000000004 l-0.04 0.08 l0.04 0.04 l0.08 -0.08 z M116.08 27.6 l-0.04 0 c0 0.04 0.08 0.12 0.12 0.12 c-0.04 -0.04 -0.08 -0.12 -0.08 -0.12 z M115 32.88 l0.08 -0.04 c0 -0.04 0 -0.12 -0.08 -0.12 l-0.08 0.04 z M119.47999999999999 31.72 l0.04 0.04 l0 -0.16 z M118.6 32.72 l0.04 0 l-0.04 0.12 l-0.08 -0.08 z M114.8 32.76 l0.08 -0.04 l-0.04 0 z M118.44 29.48 l0 -0.04 l0 0.12 l0 -0.08 z M116.52 28.08 c0 0.04 0 0.04 0.04 0.08 l0.04 -0.04 c0 -0.04 -0.04 -0.04 -0.08 -0.04 z M118.11999999999999 31.28 c0.08 0.04 0.08 0.04 0.12 0.04 l0 -0.04 l-0.12 0 z M118.52 32.72 c-0.04 0.04 -0.04 0.08 -0.04 0.12 l0.04 0.04 l0 -0.16 z M114.91999999999999 27.2 l0 0.04 c0 -0.04 0 -0.04 0.04 -0.04 l-0.04 0 z M122.12 37.76 c0 -0.16 0.08 -0.32 0.08 -0.48 c0 -0.12 -0.04 -0.24 -0.04 -0.4 c0 -0.48 0.08 -0.84 0.2 -1.32 c-0.04 -0.08 -0.04 -0.16 -0.04 -0.24 c0 -0.2 0.12 -0.4 0.12 -0.64 l-0.04 0 l0.04 -0.2 c-0.04 -0.08 -0.04 -0.24 -0.04 -0.44 c0 -1 0.2 -2.24 0.32 -2.36 l-0.12 -0.16 l0.04 -0.12 c-0.04 -0.08 -0.04 -0.2 -0.04 -0.36 c0 -0.84 0.28 -2.64 0.68 -2.64 c0.24 0 0.52 0 0.84 0.12 l0.2 0.08 s0.16 0.08 0.2 0.08 l0 -0.04 c0.44 0.56 0.52 -0.08 0.52 1.24 c0 0.2 -0.2 0.32 -0.2 0.52 c0 0.24 0.12 0.48 0.12 0.72 c0 0.16 -0.12 2.12 -0.28 2.36 c0 0.04 0.04 0.16 0.04 0.2 c0 0.36 -0.12 0.8 -0.12 1.16 c0 0.12 0.04 0.16 0.04 0.24 l0.2 0.12 c0.24 0 1.6 -3.04 1.96 -3.04 c0.12 0 0.16 0.08 0.16 0.2 l-0.2 0.4 l0.04 0.08 c0 0.08 -0.2 0.2 -0.32 0.24 c-0.04 -0.04 -0.12 -0.04 -0.2 -0.08 c-0.12 0 -0.2 0.2 -0.2 0.24 c0 0.16 0.24 0.16 0.36 0.2 c0.52 0 0.72 -2 1.28 -2.32 c-0.04 0 -0.32 0 -0.32 -0.12 c0 -0.16 0.08 -0.32 0.28 -0.36 c0.12 0.08 0.2 0.24 0.4 0.24 l0.12 -0.16 c0 -0.08 -0.12 -0.12 -0.16 -0.16 c0.04 -0.12 0.24 -0.36 0.24 -0.44 l-0.12 -0.08 l-0.12 0.08 c-0.04 -0.08 -0.16 -0.16 -0.16 -0.24 c0 -0.44 0.64 -0.44 0.76 -0.72 l0.08 0.04 c-0.04 0.28 -0.08 0.48 -0.36 0.64 l0.08 0.04 c0.32 0 0.52 -0.4 0.6 -0.68 l0.08 -0.24 c0 -0.04 0.04 -0.12 0.04 -0.12 c0.08 -0.28 0.32 -0.28 0.32 -0.56 c0 -0.36 -0.44 -0.2 -0.44 -0.4 c0 -0.16 0.12 -0.28 0.28 -0.36 l0.12 0.04 l0.08 -0.08 c-0.08 -0.04 -0.2 -0.12 -0.2 -0.2 l0.04 -0.04 l0.16 0.04 l0.08 0 l0.08 0.16 c0 0.12 -0.16 0.2 -0.16 0.48 l0.08 0.04 c0.36 -0.08 0.48 -0.68 0.48 -0.96 c-0.08 -0.04 -0.2 -0.2 -0.2 -0.28 l0.08 -0.08 l0.12 0.08 c0.24 0 0.56 -0.12 0.64 -0.36 c-0.16 -0.16 -0.4 0 -0.4 -0.2 s-0.2 -0.24 -0.32 -0.32 c0.04 -0.08 0.12 -0.28 0.24 -0.28 c0.08 0 0.24 0.28 0.24 0.36 l0 0.12 c0 0.08 0.16 0.12 0.2 0.12 c0.16 0 0.16 -0.24 0.32 -0.32 l0.12 0.08 l-0.12 0.2 l0.12 0 c0.16 0 0.24 0.2 0.24 0.36 c0 0.32 -1 1.28 -1.16 2.08 c-0.2 0.84 -0.44 1.56 -1.04 2.24 c0.04 0.04 0.08 0.16 0.08 0.2 c0 0.28 -0.32 0.92 -0.52 1.2 c-0.64 1.2 -0.68 2 -1.4 2.92 c0 0.48 -0.36 0.84 -0.52 1.28 c-0.32 0.72 -1.8 3.76 -2.72 3.76 c-0.12 0 -0.16 -0.04 -0.24 -0.04 s-0.2 0.12 -0.32 0.12 c-0.6 0 -1.44 -0.4 -1.44 -1.04 c0 -0.48 0.04 -0.96 0.04 -1.44 z M131.8 23.12 l0 0.12 c0 0.52 -0.64 0.96 -0.64 1.16 s-0.32 0.28 -0.44 0.36 l-0.08 -0.16 l0 -0.2 c0.08 -0.08 0.64 -0.48 0.64 -0.64 l0 0 c0.08 -0.16 0.32 -0.64 0.52 -0.64 z M128.8 28.240000000000002 c0 0.24 -0.04 0.52 -0.32 0.52 c-0.12 0 -0.12 -0.04 -0.12 -0.12 c0 -0.24 0.2 -0.56 0.28 -0.72 c0.08 0.08 0.16 0.2 0.16 0.32 z M131.32 25.52 l0.16 0.08 l0.2 -0.08 l0.04 0.16 c-0.08 0.08 -0.32 0.28 -0.4 0.28 c-0.12 0 -0.12 -0.12 -0.12 -0.16 l0 -0.12 c0 -0.08 0 -0.16 0.12 -0.16 z M132.04 24.880000000000003 l0 0.12 c-0.12 0.16 0 0.24 -0.24 0.36 l-0.08 0 c0.12 -0.16 0.12 -0.36 0.32 -0.48 z M130.64 25.2 l-0.08 -0.2 c0.08 -0.08 0.12 -0.12 0.12 -0.16 c0.04 0.04 0.08 0.12 0.08 0.2 z M131.44 25.119999999999997 l-0.08 -0.08 c0 -0.04 0.08 -0.08 0.2 -0.08 c0 0 0.04 0.04 0.08 0.04 c0 0.12 -0.08 0.12 -0.2 0.12 z M129.84 26.16 l0.12 -0.12 l0.04 0.12 l-0.04 0.16 z M125.84 34.72 l0.08 -0.08 l0 -0.08 l-0.2 0.12 z M131 25.16 l-0.04 0.04 l-0.08 -0.04 l0.12 0 z M142.35999999999999 32.04 l0.16 0.28 c-1.04 1.32 -2.4 2.48 -3.76 3.44 c-0.4 0.28 -1.68 0.8 -1.76 1.2 l0.2 0.08 l-0.32 0.24 l0.04 0.04 c0.52 -0.12 0.8 -0.48 1.24 -0.68 l0.48 0.2 c-0.16 0.16 -0.4 0.36 -0.68 0.52 l0.16 0.12 c-0.36 0.2 -0.68 0.44 -1.04 0.68 c-0.24 0.16 -2.52 0.96 -2.76 0.96 c-2.28 0 -4.12 -1.12 -4.12 -2.8 c0 -1.2 0.08 -2.8 0.72 -3.88 c-0.12 0.12 0.56 -0.68 0.56 -1.24 c0 -1.2 2.8 -4.4 3.6 -5.28 c0.6 -0.68 1.4 -0.88 2.36 -0.88 c1.52 0 2.72 1.12 2.72 2.48 c0 2 -0.76 1.68 -1 2.48 c-0.48 1.48 -3.36 2.84 -4.96 2.84 c-0.24 0 -0.44 -0.04 -0.68 -0.04 c-0.56 0 -0.72 1.76 -1 1.96 l0 0.16 c0 0.44 -0.12 1.44 -0.12 1.8 c0 0.4 0 1.56 0.64 1.56 c3.92 0 5.52 -4.12 8.32 -5.44 c0.32 -0.16 0.96 -0.48 1 -0.8 z M133.76 31.6 l0 0.16 c0 0.08 0 0.32 0.16 0.32 c0.2 0 0.96 -0.4 1.16 -0.52 c0.44 0 3.12 -2.04 3.16 -2.36 c0.08 -0.48 0.36 -0.96 0.36 -1.44 c0 -0.32 -0.08 -1.76 -0.64 -1.76 c-1.2 0 -2.68 3.56 -3.4 4.08 c-0.16 0.48 -0.44 1.16 -0.8 1.52 z M139.28 27.439999999999998 c-0.12 0 -0.6 0.84 -0.6 0.96 s0.04 0.28 0.16 0.28 c0.24 -0.32 0.44 -0.76 0.52 -1.12 l0.04 -0.08 z M130.92 34.2 c0.04 -0.2 0.16 -0.44 0.28 -0.6 c0 -0.04 0 -0.2 -0.08 -0.2 s-0.2 0.52 -0.28 0.6 c0 0.08 0 0.16 0.08 0.2 z M137.24 37.68 l-0.04 0.04 c0.04 0 0.08 0.04 0.08 0.04 c0.16 0 0.44 -0.2 0.52 -0.24 l-0.04 -0.08 c-0.28 0 -0.32 0.24 -0.52 0.24 z M141.32 32.6 l0 -0.04 c0.16 -0.16 0.4 -0.28 0.56 -0.44 c-0.04 0.24 -0.36 0.44 -0.56 0.48 z M130.96 35.4 c0 -0.04 0.12 -0.16 0.12 -0.2 s0 -0.12 -0.04 -0.16 c-0.16 0 -0.2 0.16 -0.2 0.24 s0.08 0.12 0.12 0.12 z M131.35999999999999 32.92 l0.12 -0.16 l-0.04 -0.08 l-0.16 0.08 l0 0.2 z M130.84 34.56 c0 -0.04 -0.08 -0.16 -0.08 -0.2 l-0.04 0.16 c0 0.08 0 0.12 0.04 0.2 c0.04 -0.04 0.08 -0.08 0.08 -0.16 z M132.4 30.52 c0 -0.04 -0.04 -0.04 -0.04 -0.08 l-0.16 0.08 l0.04 0.12 z M132.28 30.32 c0.08 -0.04 0.08 -0.12 0.12 -0.16 l-0.04 -0.08 c-0.08 0.08 -0.12 0.12 -0.16 0.24 l0.08 0 z M131.52 34.92 l0.12 -0.12 l-0.12 -0.04 l0 0.16 z M142.16 32 l0 0.04 c-0.08 0.04 -0.2 0.04 -0.28 0.08 c0.16 -0.08 0.08 -0.12 0.28 -0.12 z M130.72 35.12 l0.04 0 c0 -0.04 -0.04 -0.12 -0.08 -0.16 l-0.04 0.16 l0.08 0 z M132.48 32.96 l0 -0.2 c-0.04 0.08 -0.08 0.12 -0.08 0.24 z M132.64 30.64 l-0.08 0 l0.04 0.08 c0.04 -0.04 0.08 -0.04 0.08 -0.08 l-0.04 0 z M131.24 33.2 l0.04 0 l-0.04 -0.04 l0.04 0 l-0.04 -0.04 l0 0.08 z M144.04 30.64 c0 0.64 0.2 1.96 0.8 2.52 c0.24 0.28 1.16 1.16 1.6 1.16 c0.2 0 7.88 -5.08 8.84 -5.76 c-0.16 0.16 -0.6 0.6 -0.68 0.8 l0.04 0 l-0.88 0.72 c0.36 -0.28 1.04 -0.76 1.08 -0.76 c-0.08 1 -7.4 5.04 -7.72 5.84 c0.24 0.28 0.68 1.08 0.8 1.4 c0.28 0.36 0.76 0.84 0.76 1.28 c0 0.16 -0.04 0.24 -0.08 0.32 l0.08 0.24 c-0.04 0.36 -0.24 0.84 -0.64 1 l0.04 0 c-0.32 0.2 -0.56 0.52 -0.76 0.84 l0.04 0 c-0.6 0.2 -1.44 1.12 -1.76 1.2 l0.04 -0.04 c-0.72 0.6 -2 1.24 -3 1.24 c-0.4 0 -0.96 -0.08 -1.2 -0.36 l0.04 0 c-0.16 -0.2 -0.48 -0.48 -0.48 -0.76 c0 -1.64 1 -1.76 1.2 -2.4 c0.08 -0.4 0.44 -0.68 0.68 -1.04 c0.32 -0.48 0.44 -0.88 0.84 -1.32 c0.32 -0.36 1.36 -1.2 1.36 -1.68 c0 -0.32 -0.52 -0.56 -0.72 -0.76 c-0.4 -0.4 -1.28 -1.92 -1.52 -1.92 l-0.04 0 c-0.08 -0.6 -0.48 -1.12 -0.48 -2.08 c0 -0.52 0.04 -1.6 0.4 -2 l-0.04 -0.12 c0.16 -1.56 0.6 -1.08 0.68 -1.6 c0.04 -0.44 1.72 -2.52 2.2 -2.52 l0.16 0.08 c1.12 0 0.68 -0.56 2.04 -0.56 c1.04 0 1.88 0.04 2.64 0.68 c0.88 0.72 0.48 1 1.04 1.56 l-0.08 0.16 l0.12 0.2 c-0.24 1.08 -0.48 2.96 -1.04 3.48 c-0.6 0.6 -1.04 0.68 -1.76 0.96 c-0.28 0 -0.88 -0.4 -0.88 -0.68 c0 -0.08 0.08 -0.16 0.12 -0.2 l-0.04 -0.08 c0.08 -0.48 0.28 -0.64 0.48 -1 l0 -0.12 c0.08 -0.6 0.64 -1.24 0.68 -1.84 l-0.04 0 c0.08 -0.2 0.12 -0.4 0.12 -0.64 c0 -0.56 -0.36 -0.8 -0.44 -1.2 l0 0 c-0.12 -0.12 -0.36 -0.48 -0.52 -0.48 c-0.24 0 -1.08 0.8 -1.4 0.96 c-0.36 0.12 -1.68 2.44 -2.16 2.88 l0.04 0.04 c-0.16 0.28 -0.6 1.72 -0.6 2.36 z M146.76 37.52 c-0.08 -0.24 -0.76 -1.48 -1 -1.48 c-0.28 0 -0.64 1.16 -1.04 1.48 l0.12 -0.04 c-0.04 0.28 -0.2 1.56 -0.72 1.56 l0.08 0.04 c-0.08 0.48 -0.2 0.12 -0.2 0.92 c0 0.12 -0.24 0.32 -0.24 0.44 c0 0.04 0.08 0.08 0.16 0.08 c0.56 -0.52 1.36 -1.04 1.84 -1.64 l-0.04 0.08 s0.88 -0.8 1.04 -1.44 z M145.28 35.28 c-0.24 0.08 -0.4 0.68 -0.44 0.88 c-0.2 0.2 -0.48 0.4 -0.72 0.56 c-0.08 0.76 -1.04 1.28 -1.04 2.08 l0.08 0.16 c0.36 -0.04 0.96 -1.48 1.04 -1.48 l0 0.04 c0.28 -1.24 1.16 -0.88 1.32 -1.6 c-0.12 -0.2 0 -0.48 -0.24 -0.64 z M143.84 41.52 l0.12 0.04 l1.04 -0.72 l0 0.04 c0.12 -0.2 0.36 -0.12 0.52 -0.44 l-0.04 -0.04 c-0.36 0 -1.36 0.88 -1.64 1.12 z M143.44 41 l0.12 0.04 c0.12 0 0.2 -0.16 0.2 -0.24 c-0.16 0 -0.24 0.04 -0.32 0.2 z M148.07999999999998 33.76 c0.4 -0.24 0.76 -0.44 1.16 -0.68 c-0.4 0.24 -0.76 0.44 -1.16 0.68 z M143.84 41.52 c-0.04 0 -0.08 0 -0.12 0.04 c0.04 0 0.08 0 0.12 -0.04 z M145.76 38.88 l0.08 -0.08 c0 0.04 -0.04 0.08 -0.08 0.08 z"></path></g><g id="SvgjsG1136" featureKey="sloganFeature-0" transform="matrix(0.5925773459933569,0,0,0.5925773459933569,28.91765779627408,197.62630891867968)" fill="#f2f4f7"><path d="M10.723 5.888999999999999 l2.9297 0 l0 14.111 l-2.9297 0 l0 -5.8008 l-5.9668 0 l0 5.8008 l-2.9297 0 l0 -14.111 l2.9297 0 l0 5.7617 l5.9668 0 l0 -5.7617 z M28.374257812499998 8.467 l-5.2344 0 l0 3.2031 l4.6387 0 l0 2.5488 l-4.6387 0 l0 3.1934 l5.2344 0 l0 2.5879 l-8.1836 0 l0 -14.111 l8.1836 0 l0 2.5781 z M43.721171874999996 20 l-1.0254 -2.9102 l-5.9277 0 l-1.0254 2.9102 l-2.998 0 l5.1953 -14.111 l3.584 0 l5.1953 14.111 l-2.998 0 z M37.626971875 14.6387 l4.209 0 l-2.0996 -5.9863 z M59.9074609375 5.888999999999999 l0 2.5781 l-3.3496 0 l0 11.533 l-2.9004 0 l0 -11.533 l-3.3691 0 l0 -2.5781 l9.6191 0 z M65.00979375 20 l0 -14.111 l2.9297 0 l0 14.111 l-2.9297 0 z M84.1066015625 5.888999999999999 l2.9199 0 l0 14.111 l-3.3887 0 l-6.25 -10.088 l0 10.088 l-2.9199 0 l0 -14.111 l3.3496 0 l6.2891 10.029 l0 -10.029 z M99.66798125 20.19531 c-4.0723 0 -7.0703 -2.8125 -7.0703 -7.2168 c0 -4.4629 3.0664 -7.2852 7.2168 -7.2852 c2.7246 0 4.9805 1.2012 6.2109 3.3203 l-2.5684 1.3672 c-0.74219 -1.4453 -2.0703 -2.1387 -3.6426 -2.1387 c-2.4414 0 -4.2773 1.6797 -4.2773 4.668 c0 2.8809 1.7188 4.7363 4.3848 4.7363 c1.8066 0 3.4668 -0.89844 3.8672 -2.959 l-3.8574 0 l0 -2.3535 l6.6309 0 l0 7.666 l-2.3047 0 l0 -1.9531 c-0.9082 1.3379 -2.4316 2.1484 -4.5898 2.1484 z M128.750234375 5.888999999999999 l0 2.5781 l-3.3496 0 l0 11.533 l-2.9004 0 l0 -11.533 l-3.3691 0 l0 -2.5781 l9.6191 0 z M142.7493671875 5.888999999999999 l2.9297 0 l0 14.111 l-2.9297 0 l0 -5.8008 l-5.9668 0 l0 5.8008 l-2.9297 0 l0 -14.111 l2.9297 0 l0 5.7617 l5.9668 0 l0 -5.7617 z M160.400625 8.467 l-5.2344 0 l0 3.2031 l4.6387 0 l0 2.5488 l-4.6387 0 l0 3.1934 l5.2344 0 l0 2.5879 l-8.1836 0 l0 -14.111 l8.1836 0 l0 2.5781 z M174.38479375 20 l0 -14.111 l2.9297 0 l0 14.111 l-2.9297 0 z M188.5303015625 20.19531 c-3.0273 0 -5.3906 -1.4551 -5.8203 -4.1016 l3.0273 -0.69336 c0.19531 1.582 1.3574 2.4023 2.9102 2.4023 c1.1914 0 2.1387 -0.52734 2.1289 -1.7188 c-0.0097656 -1.3281 -1.5723 -1.748 -3.291 -2.2754 c-2.0703 -0.64453 -4.2871 -1.4063 -4.2871 -4.0039 c0 -2.627 2.1484 -4.1113 4.9805 -4.1113 c2.4805 0 4.9805 1.0059 5.5469 3.7109 l-2.832 0.70313 c-0.26367 -1.4063 -1.2109 -2.0215 -2.5391 -2.0215 c-1.1816 0 -2.1875 0.48828 -2.1875 1.6504 c0 1.084 1.3867 1.4453 2.9883 1.9238 c2.1289 0.64453 4.6484 1.4648 4.6484 4.2773 c0 2.998 -2.5098 4.2578 -5.2734 4.2578 z M202.324259375 17.4121 l4.4238 0 l0 2.5879 l-7.3535 0 l0 -14.111 l2.9297 0 l0 11.523 z M221.3139453125 20 l-1.0254 -2.9102 l-5.9277 0 l-1.0254 2.9102 l-2.998 0 l5.1953 -14.111 l3.584 0 l5.1953 14.111 l-2.998 0 z M215.2197453125 14.6387 l4.209 0 l-2.0996 -5.9863 z M238.955234375 5.888999999999999 l2.9199 0 l0 14.111 l-3.3887 0 l-6.25 -10.088 l0 10.088 l-2.9199 0 l0 -14.111 l3.3496 0 l6.2891 10.029 l0 -10.029 z M248.4131140625 20 l0 -14.111 l5.1074 0 c4.502 0 6.7285 2.832 6.7285 7.0508 c0 4.2285 -2.2266 7.0605 -6.7285 7.0605 l-5.1074 0 z M251.3428140625 17.4121 l2.0313 0 c2.5977 0 3.7891 -1.6211 3.7891 -4.4727 s-1.1914 -4.4727 -3.7891 -4.4727 l-2.0313 0 l0 8.9453 z M270.566434375 20.19531 c-3.0273 0 -5.3906 -1.4551 -5.8203 -4.1016 l3.0273 -0.69336 c0.19531 1.582 1.3574 2.4023 2.9102 2.4023 c1.1914 0 2.1387 -0.52734 2.1289 -1.7188 c-0.0097656 -1.3281 -1.5723 -1.748 -3.291 -2.2754 c-2.0703 -0.64453 -4.2871 -1.4063 -4.2871 -4.0039 c0 -2.627 2.1484 -4.1113 4.9805 -4.1113 c2.4805 0 4.9805 1.0059 5.5469 3.7109 l-2.832 0.70313 c-0.26367 -1.4063 -1.2109 -2.0215 -2.5391 -2.0215 c-1.1816 0 -2.1875 0.48828 -2.1875 1.6504 c0 1.084 1.3867 1.4453 2.9883 1.9238 c2.1289 0.64453 4.6484 1.4648 4.6484 4.2773 c0 2.998 -2.5098 4.2578 -5.2734 4.2578 z M298.408546875 5.888999999999999 l2.9297 0 l0 14.111 l-2.9297 0 l0 -5.8008 l-5.9668 0 l0 5.8008 l-2.9297 0 l0 -14.111 l2.9297 0 l0 5.7617 l5.9668 0 l0 -5.7617 z M314.1260046875 20.19531 c-4.1504 0 -7.2168 -2.832 -7.2168 -7.2559 c0 -4.4336 3.0664 -7.2461 7.2168 -7.2461 c4.1406 0 7.207 2.8125 7.207 7.2461 c0 4.4238 -3.0664 7.2559 -7.207 7.2559 z M314.1260046875 17.5098 c2.4316 0 4.2969 -1.709 4.2969 -4.5703 c0 -2.8516 -1.8652 -4.5508 -4.2969 -4.5508 s-4.2969 1.6992 -4.2969 4.5508 c0 2.8613 1.8652 4.5703 4.2969 4.5703 z M343.085890625 20 l-2.9199 0 l-0.92773 -10.635 l-3.5742 10.635 l-1.8945 0 l-3.5742 -10.635 l-0.9375 10.635 l-2.9297 0 l1.1816 -14.111 l4.1797 0 l3.0078 8.8574 l3.0469 -8.8574 l4.1797 0 z M357.2219140625 8.467 l-5.2344 0 l0 3.2031 l4.6387 0 l0 2.5488 l-4.6387 0 l0 3.1934 l5.2344 0 l0 2.5879 l-8.1836 0 l0 -14.111 l8.1836 0 l0 2.5781 z M367.812528125 20.19531 c-3.0273 0 -5.3906 -1.4551 -5.8203 -4.1016 l3.0273 -0.69336 c0.19531 1.582 1.3574 2.4023 2.9102 2.4023 c1.1914 0 2.1387 -0.52734 2.1289 -1.7188 c-0.0097656 -1.3281 -1.5723 -1.748 -3.291 -2.2754 c-2.0703 -0.64453 -4.2871 -1.4063 -4.2871 -4.0039 c0 -2.627 2.1484 -4.1113 4.9805 -4.1113 c2.4805 0 4.9805 1.0059 5.5469 3.7109 l-2.832 0.70313 c-0.26367 -1.4063 -1.2109 -2.0215 -2.5391 -2.0215 c-1.1816 0 -2.1875 0.48828 -2.1875 1.6504 c0 1.084 1.3867 1.4453 2.9883 1.9238 c2.1289 0.64453 4.6484 1.4648 4.6484 4.2773 c0 2.998 -2.5098 4.2578 -5.2734 4.2578 z"></path></g>
			</g>
		</svg>
	