<?xml version="1.0" encoding="UTF-8" standalone="no"?>
<svg
   version="1.1"
   width="32"
   height="32"
   viewBox="0 0 32.000001 31.999999"
   id="svg236"
   sodipodi:docname="favicon.svg"
   inkscape:version="1.2-beta (1b65182ce9, 2022-04-05)"
   inkscape:export-filename="favicon.png"
   inkscape:export-xdpi="96"
   inkscape:export-ydpi="96"
   xmlns:inkscape="http://www.inkscape.org/namespaces/inkscape"
   xmlns:sodipodi="http://sodipodi.sourceforge.net/DTD/sodipodi-0.dtd"
   xmlns="http://www.w3.org/2000/svg"
   xmlns:svg="http://www.w3.org/2000/svg">
  <defs
     id="defs240">
    <defs
       id="SvgjsDefs1133" />
  </defs>
  <sodipodi:namedview
     id="namedview238"
     pagecolor="#ffffff"
     bordercolor="#000000"
     borderopacity="0.25"
     inkscape:pageshadow="2"
     inkscape:pageopacity="0.0"
     inkscape:pagecheckerboard="0"
     inkscape:deskcolor="#d1d1d1"
     showgrid="false"
     inkscape:zoom="21.156255"
     inkscape:cx="15.976363"
     inkscape:cy="14.86558"
     inkscape:window-width="1600"
     inkscape:window-height="838"
     inkscape:window-x="-6"
     inkscape:window-y="-6"
     inkscape:window-maximized="1"
     inkscape:current-layer="svg236" />
  <g
     id="SvgjsG1134"
     featureKey="symbolFeature-0"
     transform="matrix(0.2417634,0,0,0.2417634,0.52347128,0.5271424)"
     fill="#f2f4f7"
     style="stroke-width:33.4821">
    <g
       id="g225"
       style="stroke-width:33.4821">
      <rect
         x="66.199997"
         y="28.200001"
         width="10.5"
         height="10.5"
         id="rect215"
         style="stroke-width:33.4821" />
      <rect
         x="50.5"
         y="44"
         width="10.5"
         height="10.5"
         id="rect217"
         style="stroke-width:33.4821" />
      <rect
         x="66.199997"
         y="44"
         width="10.5"
         height="10.5"
         id="rect219"
         style="stroke-width:33.4821" />
      <rect
         x="50.5"
         y="28.200001"
         width="10.5"
         height="10.5"
         id="rect221"
         style="stroke-width:33.4821" />
      <path
         d="M 128.9,60.8 65.9,1.1 C 65.8,1 65.8,1 65.7,0.9 65.6,0.8 65.5,0.7 65.4,0.6 65.3,0.5 65.2,0.5 65.1,0.4 65,0.3 64.9,0.3 64.7,0.2 64.6,0.2 64.5,0.1 64.3,0.1 64.2,0.1 64.1,0 63.9,0 63.8,0 63.6,0 63.5,0 63.4,0 63.2,0 63.1,0 63,0 62.8,0 62.7,0 62.6,0 62.4,0 62.3,0 62.2,0 62.1,0.1 61.9,0.1 61.8,0.1 61.6,0.2 61.5,0.2 61.4,0.2 61.3,0.3 61.1,0.4 61,0.5 60.9,0.5 60.8,0.6 60.7,0.7 60.6,0.8 60.5,0.8 60.6,1 60.5,1 60.4,1.1 L -0.9,59.2 c -1.6,1.5 -1.7,4.1 -0.2,5.7 0.8,0.8 1.8,1.3 2.9,1.3 1,0 2,-0.4 2.8,-1.1 L 12.1,58 v 66 c 0,1.2 0.5,2.3 1.4,3.1 0.7,0.6 1.6,0.9 2.6,0.9 0.2,0 0.5,0 0.7,-0.1 10.1,-1.8 19.6,-4.1 28.3,-6.7 2.1,-0.6 3.3,-2.9 2.7,-5 -0.6,-2.1 -2.9,-3.3 -5,-2.7 -7,2.1 -14.6,4 -22.7,5.6 V 50.9 c 0,-0.2 0,-0.3 0,-0.5 L 63.2,9.5 108,51.9 v 67.2 C 95.2,116.5 83.7,113.3 73.8,109.6 100.3,95.1 99.2,79.9 95.8,71.7 93.8,66.8 89.2,63.5 83.4,62.8 76.7,62 69.6,64.9 64.1,70.4 58.6,64.9 51.5,62 44.8,62.8 c -5.8,0.7 -10.4,4 -12.4,8.9 -2.6,6.5 -2.2,13.2 1.2,19.4 8.7,15.9 37.1,29.4 77.8,36.8 0.2,0 0.5,0.1 0.7,0.1 0.9,0 1.8,-0.3 2.6,-0.9 0.9,-0.8 1.4,-1.9 1.4,-3.1 V 59.5 l 7.5,7.1 c 0.8,0.7 1.8,1.1 2.8,1.1 1.1,0 2.1,-0.4 2.9,-1.3 1.3,-1.6 1.2,-4.1 -0.4,-5.6 z M 40.4,87.3 C 38.1,83.1 37.9,79 39.6,74.8 c 0.9,-2.2 3.1,-3.6 6,-3.9 4.1,-0.5 10.3,1.4 15.1,8.1 0,0.1 0.1,0.1 0.2,0.2 0.1,0.1 0.2,0.2 0.3,0.3 0.1,0.1 0.2,0.2 0.3,0.3 0.1,0 0.1,0.1 0.2,0.1 0,0 0.1,0 0.1,0.1 0.1,0.1 0.2,0.2 0.4,0.2 0.1,0.1 0.2,0.1 0.3,0.2 0.1,0 0.2,0.1 0.4,0.1 0.1,0 0.3,0.1 0.4,0.1 0.1,0 0.2,0 0.4,0 0.1,0 0.3,0 0.4,0 0.1,0 0.2,0 0.4,0 0.1,0 0.3,0 0.4,0 0.1,0 0.2,-0.1 0.4,-0.1 0.1,0 0.3,-0.1 0.4,-0.1 0.1,0 0.2,-0.1 0.3,-0.2 0.1,-0.1 0.3,-0.1 0.4,-0.2 0,0 0.1,0 0.1,-0.1 0.1,0 0.1,-0.1 0.2,-0.1 0.1,-0.1 0.2,-0.2 0.3,-0.3 0.1,-0.1 0.2,-0.2 0.3,-0.3 0,-0.1 0.1,-0.1 0.2,-0.2 4.9,-6.7 11,-8.6 15.1,-8.1 2.9,0.3 5.1,1.8 6,3.9 5.7,14 -12.2,25.1 -24.3,30.8 C 52.3,100 44,93.8 40.4,87.3 Z"
         id="path223"
         style="stroke-width:33.4821" />
    </g>
  </g>
</svg>
